%
M48
M72
T01C0.0197
T02C0.0236
T03C0.0315
T04C0.0320
T05C0.0360
T06C0.0394
T07C0.0400
T08C0.1260
%
T01
X8781Y8723
X10187Y10515
X11946Y8853
X10923Y7212
X12717Y6312
X17089Y5375
X17726Y4668
X17726Y1794
X10600Y12379
T02
X11905Y5193
X17969Y7853
X12378Y17611
X10925Y19311
X9604Y20756
X15472Y19004
T03
X6553Y18678
X5372Y20568
T04
X5493Y7366
X5493Y9266
T05
X19842Y7881
X19842Y8881
X19842Y9881
X19842Y10881
X19842Y11881
X19842Y12881
X19842Y13881
X19842Y14881
X19842Y15881
X19842Y16881
X20842Y16881
X20842Y15881
X20842Y14881
X20842Y13881
X20842Y12881
X20842Y11881
X20842Y10881
X20842Y9881
X20842Y8881
X20842Y7881
T06
X7734Y20568
T07
X2619Y3989
X3619Y3989
X4619Y3989
X5619Y3989
X6619Y3989
X7619Y3989
X8619Y3989
X9619Y3989
X9709Y2213
X8709Y2213
X7709Y2213
X6709Y2213
X2032Y6861
X2032Y7861
X1918Y9331
X1918Y10331
X1918Y11331
X1918Y12331
X1918Y13331
X1918Y14331
X3207Y16734
X3207Y17734
X5347Y14773
X6347Y14773
X7347Y14773
X8347Y14773
X9347Y14773
X10347Y14773
X11347Y14773
X12347Y14773
X15943Y14884
X15943Y15884
X15943Y16884
X15943Y13884
X15943Y12884
X15943Y11884
X15943Y10884
X15943Y9884
X16060Y7817
X16060Y6817
X16060Y5817
X16060Y4817
X15704Y3364
X16704Y3364
X17704Y3364
X18704Y3364
X19704Y3364
X20704Y3364
X14704Y3364
X13704Y3364
X12704Y3364
X16944Y20892
X16944Y21892
T08
X1359Y1209
X21680Y1266
X21571Y23224
X1407Y23224
M30
