G75*
G70*
%OFA0B0*%
%FSLAX24Y24*%
%IPPOS*%
%LPD*%
%AMOC8*
5,1,8,0,0,1.08239X$1,22.5*
%
%ADD10C,0.0320*%
%ADD11C,0.0000*%
%ADD12C,0.1340*%
%ADD13C,0.0040*%
%ADD14C,0.0640*%
%ADD15OC8,0.0640*%
%ADD16C,0.0600*%
%ADD17C,0.0680*%
%ADD18R,0.0474X0.0513*%
%ADD19C,0.0940*%
%ADD20C,0.0476*%
%ADD21OC8,0.0476*%
%ADD22OC8,0.0437*%
%ADD23C,0.0437*%
D10*
X000262Y000262D02*
X000262Y024345D01*
X022758Y024345D01*
X022758Y000262D01*
X000262Y000262D01*
D11*
X000729Y001209D02*
X000731Y001259D01*
X000737Y001309D01*
X000747Y001358D01*
X000761Y001406D01*
X000778Y001453D01*
X000799Y001498D01*
X000824Y001542D01*
X000852Y001583D01*
X000884Y001622D01*
X000918Y001659D01*
X000955Y001693D01*
X000995Y001723D01*
X001037Y001750D01*
X001081Y001774D01*
X001127Y001795D01*
X001174Y001811D01*
X001222Y001824D01*
X001272Y001833D01*
X001321Y001838D01*
X001372Y001839D01*
X001422Y001836D01*
X001471Y001829D01*
X001520Y001818D01*
X001568Y001803D01*
X001614Y001785D01*
X001659Y001763D01*
X001702Y001737D01*
X001743Y001708D01*
X001782Y001676D01*
X001818Y001641D01*
X001850Y001603D01*
X001880Y001563D01*
X001907Y001520D01*
X001930Y001476D01*
X001949Y001430D01*
X001965Y001382D01*
X001977Y001333D01*
X001985Y001284D01*
X001989Y001234D01*
X001989Y001184D01*
X001985Y001134D01*
X001977Y001085D01*
X001965Y001036D01*
X001949Y000988D01*
X001930Y000942D01*
X001907Y000898D01*
X001880Y000855D01*
X001850Y000815D01*
X001818Y000777D01*
X001782Y000742D01*
X001743Y000710D01*
X001702Y000681D01*
X001659Y000655D01*
X001614Y000633D01*
X001568Y000615D01*
X001520Y000600D01*
X001471Y000589D01*
X001422Y000582D01*
X001372Y000579D01*
X001321Y000580D01*
X001272Y000585D01*
X001222Y000594D01*
X001174Y000607D01*
X001127Y000623D01*
X001081Y000644D01*
X001037Y000668D01*
X000995Y000695D01*
X000955Y000725D01*
X000918Y000759D01*
X000884Y000796D01*
X000852Y000835D01*
X000824Y000876D01*
X000799Y000920D01*
X000778Y000965D01*
X000761Y001012D01*
X000747Y001060D01*
X000737Y001109D01*
X000731Y001159D01*
X000729Y001209D01*
X000777Y023224D02*
X000779Y023274D01*
X000785Y023324D01*
X000795Y023373D01*
X000809Y023421D01*
X000826Y023468D01*
X000847Y023513D01*
X000872Y023557D01*
X000900Y023598D01*
X000932Y023637D01*
X000966Y023674D01*
X001003Y023708D01*
X001043Y023738D01*
X001085Y023765D01*
X001129Y023789D01*
X001175Y023810D01*
X001222Y023826D01*
X001270Y023839D01*
X001320Y023848D01*
X001369Y023853D01*
X001420Y023854D01*
X001470Y023851D01*
X001519Y023844D01*
X001568Y023833D01*
X001616Y023818D01*
X001662Y023800D01*
X001707Y023778D01*
X001750Y023752D01*
X001791Y023723D01*
X001830Y023691D01*
X001866Y023656D01*
X001898Y023618D01*
X001928Y023578D01*
X001955Y023535D01*
X001978Y023491D01*
X001997Y023445D01*
X002013Y023397D01*
X002025Y023348D01*
X002033Y023299D01*
X002037Y023249D01*
X002037Y023199D01*
X002033Y023149D01*
X002025Y023100D01*
X002013Y023051D01*
X001997Y023003D01*
X001978Y022957D01*
X001955Y022913D01*
X001928Y022870D01*
X001898Y022830D01*
X001866Y022792D01*
X001830Y022757D01*
X001791Y022725D01*
X001750Y022696D01*
X001707Y022670D01*
X001662Y022648D01*
X001616Y022630D01*
X001568Y022615D01*
X001519Y022604D01*
X001470Y022597D01*
X001420Y022594D01*
X001369Y022595D01*
X001320Y022600D01*
X001270Y022609D01*
X001222Y022622D01*
X001175Y022638D01*
X001129Y022659D01*
X001085Y022683D01*
X001043Y022710D01*
X001003Y022740D01*
X000966Y022774D01*
X000932Y022811D01*
X000900Y022850D01*
X000872Y022891D01*
X000847Y022935D01*
X000826Y022980D01*
X000809Y023027D01*
X000795Y023075D01*
X000785Y023124D01*
X000779Y023174D01*
X000777Y023224D01*
X020941Y023224D02*
X020943Y023274D01*
X020949Y023324D01*
X020959Y023373D01*
X020973Y023421D01*
X020990Y023468D01*
X021011Y023513D01*
X021036Y023557D01*
X021064Y023598D01*
X021096Y023637D01*
X021130Y023674D01*
X021167Y023708D01*
X021207Y023738D01*
X021249Y023765D01*
X021293Y023789D01*
X021339Y023810D01*
X021386Y023826D01*
X021434Y023839D01*
X021484Y023848D01*
X021533Y023853D01*
X021584Y023854D01*
X021634Y023851D01*
X021683Y023844D01*
X021732Y023833D01*
X021780Y023818D01*
X021826Y023800D01*
X021871Y023778D01*
X021914Y023752D01*
X021955Y023723D01*
X021994Y023691D01*
X022030Y023656D01*
X022062Y023618D01*
X022092Y023578D01*
X022119Y023535D01*
X022142Y023491D01*
X022161Y023445D01*
X022177Y023397D01*
X022189Y023348D01*
X022197Y023299D01*
X022201Y023249D01*
X022201Y023199D01*
X022197Y023149D01*
X022189Y023100D01*
X022177Y023051D01*
X022161Y023003D01*
X022142Y022957D01*
X022119Y022913D01*
X022092Y022870D01*
X022062Y022830D01*
X022030Y022792D01*
X021994Y022757D01*
X021955Y022725D01*
X021914Y022696D01*
X021871Y022670D01*
X021826Y022648D01*
X021780Y022630D01*
X021732Y022615D01*
X021683Y022604D01*
X021634Y022597D01*
X021584Y022594D01*
X021533Y022595D01*
X021484Y022600D01*
X021434Y022609D01*
X021386Y022622D01*
X021339Y022638D01*
X021293Y022659D01*
X021249Y022683D01*
X021207Y022710D01*
X021167Y022740D01*
X021130Y022774D01*
X021096Y022811D01*
X021064Y022850D01*
X021036Y022891D01*
X021011Y022935D01*
X020990Y022980D01*
X020973Y023027D01*
X020959Y023075D01*
X020949Y023124D01*
X020943Y023174D01*
X020941Y023224D01*
X021050Y001266D02*
X021052Y001316D01*
X021058Y001366D01*
X021068Y001415D01*
X021082Y001463D01*
X021099Y001510D01*
X021120Y001555D01*
X021145Y001599D01*
X021173Y001640D01*
X021205Y001679D01*
X021239Y001716D01*
X021276Y001750D01*
X021316Y001780D01*
X021358Y001807D01*
X021402Y001831D01*
X021448Y001852D01*
X021495Y001868D01*
X021543Y001881D01*
X021593Y001890D01*
X021642Y001895D01*
X021693Y001896D01*
X021743Y001893D01*
X021792Y001886D01*
X021841Y001875D01*
X021889Y001860D01*
X021935Y001842D01*
X021980Y001820D01*
X022023Y001794D01*
X022064Y001765D01*
X022103Y001733D01*
X022139Y001698D01*
X022171Y001660D01*
X022201Y001620D01*
X022228Y001577D01*
X022251Y001533D01*
X022270Y001487D01*
X022286Y001439D01*
X022298Y001390D01*
X022306Y001341D01*
X022310Y001291D01*
X022310Y001241D01*
X022306Y001191D01*
X022298Y001142D01*
X022286Y001093D01*
X022270Y001045D01*
X022251Y000999D01*
X022228Y000955D01*
X022201Y000912D01*
X022171Y000872D01*
X022139Y000834D01*
X022103Y000799D01*
X022064Y000767D01*
X022023Y000738D01*
X021980Y000712D01*
X021935Y000690D01*
X021889Y000672D01*
X021841Y000657D01*
X021792Y000646D01*
X021743Y000639D01*
X021693Y000636D01*
X021642Y000637D01*
X021593Y000642D01*
X021543Y000651D01*
X021495Y000664D01*
X021448Y000680D01*
X021402Y000701D01*
X021358Y000725D01*
X021316Y000752D01*
X021276Y000782D01*
X021239Y000816D01*
X021205Y000853D01*
X021173Y000892D01*
X021145Y000933D01*
X021120Y000977D01*
X021099Y001022D01*
X021082Y001069D01*
X021068Y001117D01*
X021058Y001166D01*
X021052Y001216D01*
X021050Y001266D01*
D12*
X021680Y001266D03*
X001359Y001209D03*
X001407Y023224D03*
X021571Y023224D03*
D13*
X008521Y012877D02*
X008521Y012417D01*
X008521Y012570D02*
X008291Y012570D01*
X008214Y012647D01*
X008214Y012800D01*
X008291Y012877D01*
X008521Y012877D01*
X008061Y012800D02*
X008061Y012724D01*
X007984Y012647D01*
X007831Y012647D01*
X007754Y012570D01*
X007754Y012493D01*
X007831Y012417D01*
X007984Y012417D01*
X008061Y012493D01*
X008061Y012800D02*
X007984Y012877D01*
X007831Y012877D01*
X007754Y012800D01*
X007600Y012800D02*
X007524Y012877D01*
X007370Y012877D01*
X007294Y012800D01*
X007294Y012724D01*
X007600Y012417D01*
X007294Y012417D01*
X006680Y012724D02*
X006526Y012417D01*
X006373Y012724D01*
X006219Y012724D02*
X006066Y012877D01*
X006066Y012417D01*
X006219Y012417D02*
X005912Y012417D01*
X005759Y012417D02*
X005682Y012417D01*
X005682Y012493D01*
X005759Y012493D01*
X005759Y012417D01*
X005529Y012417D02*
X005222Y012724D01*
X005222Y012800D01*
X005299Y012877D01*
X005452Y012877D01*
X005529Y012800D01*
X005529Y012417D02*
X005222Y012417D01*
X005346Y022956D02*
X005346Y023416D01*
X005499Y023340D02*
X005576Y023416D01*
X005729Y023416D01*
X005806Y023340D01*
X005806Y023033D01*
X005729Y022956D01*
X005576Y022956D01*
X005499Y023033D01*
X005346Y023186D02*
X005039Y023186D01*
X005039Y023416D02*
X005039Y022956D01*
X004425Y023416D02*
X004118Y023416D01*
X003965Y023416D02*
X003965Y022956D01*
X003658Y022956D01*
X003504Y022956D02*
X003504Y023263D01*
X003351Y023416D01*
X003197Y023263D01*
X003197Y022956D01*
X003044Y022956D02*
X003044Y023416D01*
X002890Y023263D01*
X002737Y023416D01*
X002737Y022956D01*
X003197Y023186D02*
X003504Y023186D01*
X003658Y023416D02*
X003965Y023416D01*
X003965Y023186D02*
X003811Y023186D01*
X004271Y022956D02*
X004271Y023416D01*
X005959Y023416D02*
X006266Y023416D01*
X006266Y022956D01*
X005959Y022956D01*
X006113Y023186D02*
X006266Y023186D01*
X006420Y023416D02*
X006727Y023416D01*
X006573Y023416D02*
X006573Y022956D01*
X007341Y023416D02*
X007647Y023416D01*
X007494Y023416D02*
X007494Y022956D01*
X007801Y022956D02*
X007954Y022956D01*
X007878Y022956D02*
X007878Y023416D01*
X007954Y023416D02*
X007801Y023416D01*
X008108Y023416D02*
X008108Y022956D01*
X008415Y022956D02*
X008415Y023416D01*
X008261Y023263D01*
X008108Y023416D01*
D14*
X019842Y016881D03*
D15*
X020842Y016881D03*
X020842Y015881D03*
X019842Y015881D03*
X019842Y014881D03*
X020842Y014881D03*
X020842Y013881D03*
X019842Y013881D03*
X019842Y012881D03*
X020842Y012881D03*
X020842Y011881D03*
X019842Y011881D03*
X019842Y010881D03*
X020842Y010881D03*
X020842Y009881D03*
X019842Y009881D03*
X019842Y008881D03*
X020842Y008881D03*
X020842Y007881D03*
X019842Y007881D03*
D16*
X005493Y007366D03*
X005493Y009266D03*
D17*
X002332Y007861D02*
X001732Y007861D01*
X001732Y006861D02*
X002332Y006861D01*
X002218Y009331D02*
X001618Y009331D01*
X001618Y010331D02*
X002218Y010331D01*
X002218Y011331D02*
X001618Y011331D01*
X001618Y012331D02*
X002218Y012331D01*
X002218Y013331D02*
X001618Y013331D01*
X001618Y014331D02*
X002218Y014331D01*
X002907Y016734D02*
X003507Y016734D01*
X003507Y017734D02*
X002907Y017734D01*
X005347Y015073D02*
X005347Y014473D01*
X006347Y014473D02*
X006347Y015073D01*
X007347Y015073D02*
X007347Y014473D01*
X008347Y014473D02*
X008347Y015073D01*
X009347Y015073D02*
X009347Y014473D01*
X010347Y014473D02*
X010347Y015073D01*
X011347Y015073D02*
X011347Y014473D01*
X012347Y014473D02*
X012347Y015073D01*
X015643Y014884D02*
X016243Y014884D01*
X016243Y015884D02*
X015643Y015884D01*
X015643Y016884D02*
X016243Y016884D01*
X016243Y013884D02*
X015643Y013884D01*
X015643Y012884D02*
X016243Y012884D01*
X016243Y011884D02*
X015643Y011884D01*
X015643Y010884D02*
X016243Y010884D01*
X016243Y009884D02*
X015643Y009884D01*
X015760Y007817D02*
X016360Y007817D01*
X016360Y006817D02*
X015760Y006817D01*
X015760Y005817D02*
X016360Y005817D01*
X016360Y004817D02*
X015760Y004817D01*
X015704Y003664D02*
X015704Y003064D01*
X016704Y003064D02*
X016704Y003664D01*
X017704Y003664D02*
X017704Y003064D01*
X018704Y003064D02*
X018704Y003664D01*
X019704Y003664D02*
X019704Y003064D01*
X020704Y003064D02*
X020704Y003664D01*
X014704Y003664D02*
X014704Y003064D01*
X013704Y003064D02*
X013704Y003664D01*
X012704Y003664D02*
X012704Y003064D01*
X009709Y002513D02*
X009709Y001913D01*
X008709Y001913D02*
X008709Y002513D01*
X007709Y002513D02*
X007709Y001913D01*
X006709Y001913D02*
X006709Y002513D01*
X006619Y003689D02*
X006619Y004289D01*
X005619Y004289D02*
X005619Y003689D01*
X004619Y003689D02*
X004619Y004289D01*
X003619Y004289D02*
X003619Y003689D01*
X002619Y003689D02*
X002619Y004289D01*
X007619Y004289D02*
X007619Y003689D01*
X008619Y003689D02*
X008619Y004289D01*
X009619Y004289D02*
X009619Y003689D01*
X016644Y020892D02*
X017244Y020892D01*
X017244Y021892D02*
X016644Y021892D01*
D18*
X010641Y020377D03*
X009972Y020377D03*
X003106Y012168D03*
X003106Y011498D03*
D19*
X006123Y018678D02*
X006983Y018678D01*
X007734Y020138D02*
X007734Y020998D01*
X005372Y020998D02*
X005372Y020138D01*
D20*
X017969Y007853D03*
D21*
X011905Y005193D03*
X012378Y017611D03*
X010925Y019311D03*
X009604Y020756D03*
X015472Y019004D03*
D22*
X010600Y012379D03*
X010187Y010515D03*
X008781Y008723D03*
X010923Y007212D03*
X011946Y008853D03*
X017726Y004668D03*
X017726Y001794D03*
D23*
X017089Y005375D03*
X012717Y006312D03*
M02*
