G75*
G70*
%OFA0B0*%
%FSLAX24Y24*%
%IPPOS*%
%LPD*%
%AMOC8*
5,1,8,0,0,1.08239X$1,22.5*
%
%ADD10C,0.0320*%
%ADD11C,0.0000*%
%ADD12C,0.0060*%
%ADD13C,0.0100*%
%ADD14C,0.0080*%
%ADD15C,0.0070*%
%ADD16R,0.0100X0.0200*%
%ADD17R,0.0050X0.0150*%
%ADD18R,0.0100X0.0100*%
%ADD19C,0.0050*%
%ADD20C,0.0160*%
%ADD21C,0.0030*%
%ADD22C,0.0040*%
%ADD23R,0.0200X0.0200*%
%ADD24R,0.0340X0.0300*%
%ADD25C,0.0039*%
%ADD26R,0.0167X0.0128*%
%ADD27R,0.0138X0.0138*%
%ADD28R,0.0128X0.0167*%
D10*
X000262Y000262D02*
X000262Y024345D01*
X022758Y024345D01*
X022758Y000262D01*
X000262Y000262D01*
D11*
X000729Y001209D02*
X000731Y001259D01*
X000737Y001309D01*
X000747Y001358D01*
X000761Y001406D01*
X000778Y001453D01*
X000799Y001498D01*
X000824Y001542D01*
X000852Y001583D01*
X000884Y001622D01*
X000918Y001659D01*
X000955Y001693D01*
X000995Y001723D01*
X001037Y001750D01*
X001081Y001774D01*
X001127Y001795D01*
X001174Y001811D01*
X001222Y001824D01*
X001272Y001833D01*
X001321Y001838D01*
X001372Y001839D01*
X001422Y001836D01*
X001471Y001829D01*
X001520Y001818D01*
X001568Y001803D01*
X001614Y001785D01*
X001659Y001763D01*
X001702Y001737D01*
X001743Y001708D01*
X001782Y001676D01*
X001818Y001641D01*
X001850Y001603D01*
X001880Y001563D01*
X001907Y001520D01*
X001930Y001476D01*
X001949Y001430D01*
X001965Y001382D01*
X001977Y001333D01*
X001985Y001284D01*
X001989Y001234D01*
X001989Y001184D01*
X001985Y001134D01*
X001977Y001085D01*
X001965Y001036D01*
X001949Y000988D01*
X001930Y000942D01*
X001907Y000898D01*
X001880Y000855D01*
X001850Y000815D01*
X001818Y000777D01*
X001782Y000742D01*
X001743Y000710D01*
X001702Y000681D01*
X001659Y000655D01*
X001614Y000633D01*
X001568Y000615D01*
X001520Y000600D01*
X001471Y000589D01*
X001422Y000582D01*
X001372Y000579D01*
X001321Y000580D01*
X001272Y000585D01*
X001222Y000594D01*
X001174Y000607D01*
X001127Y000623D01*
X001081Y000644D01*
X001037Y000668D01*
X000995Y000695D01*
X000955Y000725D01*
X000918Y000759D01*
X000884Y000796D01*
X000852Y000835D01*
X000824Y000876D01*
X000799Y000920D01*
X000778Y000965D01*
X000761Y001012D01*
X000747Y001060D01*
X000737Y001109D01*
X000731Y001159D01*
X000729Y001209D01*
X000777Y023224D02*
X000779Y023274D01*
X000785Y023324D01*
X000795Y023373D01*
X000809Y023421D01*
X000826Y023468D01*
X000847Y023513D01*
X000872Y023557D01*
X000900Y023598D01*
X000932Y023637D01*
X000966Y023674D01*
X001003Y023708D01*
X001043Y023738D01*
X001085Y023765D01*
X001129Y023789D01*
X001175Y023810D01*
X001222Y023826D01*
X001270Y023839D01*
X001320Y023848D01*
X001369Y023853D01*
X001420Y023854D01*
X001470Y023851D01*
X001519Y023844D01*
X001568Y023833D01*
X001616Y023818D01*
X001662Y023800D01*
X001707Y023778D01*
X001750Y023752D01*
X001791Y023723D01*
X001830Y023691D01*
X001866Y023656D01*
X001898Y023618D01*
X001928Y023578D01*
X001955Y023535D01*
X001978Y023491D01*
X001997Y023445D01*
X002013Y023397D01*
X002025Y023348D01*
X002033Y023299D01*
X002037Y023249D01*
X002037Y023199D01*
X002033Y023149D01*
X002025Y023100D01*
X002013Y023051D01*
X001997Y023003D01*
X001978Y022957D01*
X001955Y022913D01*
X001928Y022870D01*
X001898Y022830D01*
X001866Y022792D01*
X001830Y022757D01*
X001791Y022725D01*
X001750Y022696D01*
X001707Y022670D01*
X001662Y022648D01*
X001616Y022630D01*
X001568Y022615D01*
X001519Y022604D01*
X001470Y022597D01*
X001420Y022594D01*
X001369Y022595D01*
X001320Y022600D01*
X001270Y022609D01*
X001222Y022622D01*
X001175Y022638D01*
X001129Y022659D01*
X001085Y022683D01*
X001043Y022710D01*
X001003Y022740D01*
X000966Y022774D01*
X000932Y022811D01*
X000900Y022850D01*
X000872Y022891D01*
X000847Y022935D01*
X000826Y022980D01*
X000809Y023027D01*
X000795Y023075D01*
X000785Y023124D01*
X000779Y023174D01*
X000777Y023224D01*
X020941Y023224D02*
X020943Y023274D01*
X020949Y023324D01*
X020959Y023373D01*
X020973Y023421D01*
X020990Y023468D01*
X021011Y023513D01*
X021036Y023557D01*
X021064Y023598D01*
X021096Y023637D01*
X021130Y023674D01*
X021167Y023708D01*
X021207Y023738D01*
X021249Y023765D01*
X021293Y023789D01*
X021339Y023810D01*
X021386Y023826D01*
X021434Y023839D01*
X021484Y023848D01*
X021533Y023853D01*
X021584Y023854D01*
X021634Y023851D01*
X021683Y023844D01*
X021732Y023833D01*
X021780Y023818D01*
X021826Y023800D01*
X021871Y023778D01*
X021914Y023752D01*
X021955Y023723D01*
X021994Y023691D01*
X022030Y023656D01*
X022062Y023618D01*
X022092Y023578D01*
X022119Y023535D01*
X022142Y023491D01*
X022161Y023445D01*
X022177Y023397D01*
X022189Y023348D01*
X022197Y023299D01*
X022201Y023249D01*
X022201Y023199D01*
X022197Y023149D01*
X022189Y023100D01*
X022177Y023051D01*
X022161Y023003D01*
X022142Y022957D01*
X022119Y022913D01*
X022092Y022870D01*
X022062Y022830D01*
X022030Y022792D01*
X021994Y022757D01*
X021955Y022725D01*
X021914Y022696D01*
X021871Y022670D01*
X021826Y022648D01*
X021780Y022630D01*
X021732Y022615D01*
X021683Y022604D01*
X021634Y022597D01*
X021584Y022594D01*
X021533Y022595D01*
X021484Y022600D01*
X021434Y022609D01*
X021386Y022622D01*
X021339Y022638D01*
X021293Y022659D01*
X021249Y022683D01*
X021207Y022710D01*
X021167Y022740D01*
X021130Y022774D01*
X021096Y022811D01*
X021064Y022850D01*
X021036Y022891D01*
X021011Y022935D01*
X020990Y022980D01*
X020973Y023027D01*
X020959Y023075D01*
X020949Y023124D01*
X020943Y023174D01*
X020941Y023224D01*
X021050Y001266D02*
X021052Y001316D01*
X021058Y001366D01*
X021068Y001415D01*
X021082Y001463D01*
X021099Y001510D01*
X021120Y001555D01*
X021145Y001599D01*
X021173Y001640D01*
X021205Y001679D01*
X021239Y001716D01*
X021276Y001750D01*
X021316Y001780D01*
X021358Y001807D01*
X021402Y001831D01*
X021448Y001852D01*
X021495Y001868D01*
X021543Y001881D01*
X021593Y001890D01*
X021642Y001895D01*
X021693Y001896D01*
X021743Y001893D01*
X021792Y001886D01*
X021841Y001875D01*
X021889Y001860D01*
X021935Y001842D01*
X021980Y001820D01*
X022023Y001794D01*
X022064Y001765D01*
X022103Y001733D01*
X022139Y001698D01*
X022171Y001660D01*
X022201Y001620D01*
X022228Y001577D01*
X022251Y001533D01*
X022270Y001487D01*
X022286Y001439D01*
X022298Y001390D01*
X022306Y001341D01*
X022310Y001291D01*
X022310Y001241D01*
X022306Y001191D01*
X022298Y001142D01*
X022286Y001093D01*
X022270Y001045D01*
X022251Y000999D01*
X022228Y000955D01*
X022201Y000912D01*
X022171Y000872D01*
X022139Y000834D01*
X022103Y000799D01*
X022064Y000767D01*
X022023Y000738D01*
X021980Y000712D01*
X021935Y000690D01*
X021889Y000672D01*
X021841Y000657D01*
X021792Y000646D01*
X021743Y000639D01*
X021693Y000636D01*
X021642Y000637D01*
X021593Y000642D01*
X021543Y000651D01*
X021495Y000664D01*
X021448Y000680D01*
X021402Y000701D01*
X021358Y000725D01*
X021316Y000752D01*
X021276Y000782D01*
X021239Y000816D01*
X021205Y000853D01*
X021173Y000892D01*
X021145Y000933D01*
X021120Y000977D01*
X021099Y001022D01*
X021082Y001069D01*
X021068Y001117D01*
X021058Y001166D01*
X021052Y001216D01*
X021050Y001266D01*
D12*
X020954Y002864D02*
X020454Y002864D01*
X020204Y003114D01*
X019954Y002864D01*
X019454Y002864D01*
X019204Y003114D01*
X019204Y003614D01*
X019454Y003864D01*
X019954Y003864D01*
X020204Y003614D01*
X020454Y003864D01*
X020954Y003864D01*
X021204Y003614D01*
X021204Y003114D01*
X020954Y002864D01*
X020204Y003114D02*
X020204Y003614D01*
X019204Y003614D02*
X018954Y003864D01*
X018454Y003864D01*
X018204Y003614D01*
X017954Y003864D01*
X017454Y003864D01*
X017204Y003614D01*
X016954Y003864D01*
X016454Y003864D01*
X016204Y003614D01*
X016204Y003114D01*
X016454Y002864D01*
X016954Y002864D01*
X017204Y003114D01*
X017204Y003614D01*
X017204Y003114D02*
X017454Y002864D01*
X017954Y002864D01*
X018204Y003114D01*
X018204Y003614D01*
X018204Y003114D02*
X018454Y002864D01*
X018954Y002864D01*
X019204Y003114D01*
X016560Y004567D02*
X016310Y004317D01*
X015810Y004317D01*
X015560Y004567D01*
X015560Y005067D01*
X015810Y005317D01*
X015560Y005567D01*
X015560Y006067D01*
X015810Y006317D01*
X015560Y006567D01*
X015560Y007067D01*
X015810Y007317D01*
X015560Y007567D01*
X015560Y008067D01*
X015810Y008317D01*
X016310Y008317D01*
X016560Y008067D01*
X016560Y007567D01*
X016310Y007317D01*
X016560Y007067D01*
X016560Y006567D01*
X016310Y006317D01*
X015810Y006317D01*
X016310Y006317D02*
X016560Y006067D01*
X016560Y005567D01*
X016310Y005317D01*
X016560Y005067D01*
X016560Y004567D01*
X016310Y005317D02*
X015810Y005317D01*
X015954Y003864D02*
X015454Y003864D01*
X015204Y003614D01*
X014954Y003864D01*
X014454Y003864D01*
X014204Y003614D01*
X013954Y003864D01*
X013454Y003864D01*
X013204Y003614D01*
X012954Y003864D01*
X012454Y003864D01*
X012204Y003614D01*
X012204Y003114D01*
X012454Y002864D01*
X012954Y002864D01*
X013204Y003114D01*
X013204Y003614D01*
X013204Y003114D02*
X013454Y002864D01*
X013954Y002864D01*
X014204Y003114D01*
X014204Y003614D01*
X014204Y003114D02*
X014454Y002864D01*
X014954Y002864D01*
X015204Y003114D01*
X015204Y003614D01*
X015204Y003114D02*
X015454Y002864D01*
X015954Y002864D01*
X016204Y003114D01*
X016204Y003614D02*
X015954Y003864D01*
X018962Y006381D02*
X018962Y006731D01*
X019492Y006731D01*
X019492Y006381D01*
X020092Y006381D01*
X020592Y006381D01*
X021192Y006381D01*
X021712Y006381D01*
X021712Y006731D01*
X021712Y007381D01*
X021712Y017381D01*
X021712Y018031D01*
X021712Y018371D01*
X021192Y018371D01*
X020592Y018371D01*
X020092Y018371D01*
X019492Y018371D01*
X018962Y018371D01*
X018962Y018031D01*
X018962Y017381D01*
X018962Y007381D01*
X018962Y006731D01*
X018962Y006381D02*
X019492Y006381D01*
X020092Y006381D02*
X020092Y006731D01*
X020592Y006731D01*
X020592Y006381D01*
X021192Y006381D02*
X021192Y006731D01*
X021712Y006731D01*
X021712Y007381D02*
X022092Y007381D01*
X022092Y017381D01*
X021712Y017381D01*
X021712Y018031D02*
X021192Y018031D01*
X021192Y018371D01*
X020592Y018371D02*
X020592Y018031D01*
X020092Y018031D01*
X020092Y018371D01*
X020062Y017771D02*
X020062Y017411D01*
X020062Y017591D02*
X019522Y017591D01*
X019702Y017411D01*
X019422Y017051D02*
X019092Y016881D01*
X019192Y016881D01*
X019092Y016881D02*
X019422Y016711D01*
X019422Y017051D01*
X018962Y017381D02*
X016952Y017381D01*
X017342Y013881D01*
X016702Y011381D01*
X017342Y008881D01*
X016952Y007381D01*
X018962Y007381D01*
X016443Y009634D02*
X016443Y010134D01*
X016193Y010384D01*
X016443Y010634D01*
X016443Y011134D01*
X016193Y011384D01*
X015693Y011384D01*
X015443Y011134D01*
X015443Y010634D01*
X015693Y010384D01*
X016193Y010384D01*
X015693Y010384D02*
X015443Y010134D01*
X015443Y009634D01*
X015693Y009384D01*
X016193Y009384D01*
X016443Y009634D01*
X016193Y011384D02*
X016443Y011634D01*
X016443Y012134D01*
X016193Y012384D01*
X016443Y012634D01*
X016443Y013134D01*
X016193Y013384D01*
X016443Y013634D01*
X016443Y014134D01*
X016193Y014384D01*
X015693Y014384D01*
X015443Y014134D01*
X015443Y013634D01*
X015693Y013384D01*
X016193Y013384D01*
X015693Y013384D02*
X015443Y013134D01*
X015443Y012634D01*
X015693Y012384D01*
X016193Y012384D01*
X015693Y012384D02*
X015443Y012134D01*
X015443Y011634D01*
X015693Y011384D01*
X013887Y011611D02*
X013460Y011611D01*
X013887Y012039D01*
X013887Y012145D01*
X013780Y012252D01*
X013567Y012252D01*
X013460Y012145D01*
X013243Y012145D02*
X013243Y012039D01*
X013136Y011932D01*
X013243Y011825D01*
X013243Y011718D01*
X013136Y011611D01*
X012922Y011611D01*
X012816Y011718D01*
X012598Y011611D02*
X012598Y012039D01*
X012385Y012252D01*
X012171Y012039D01*
X012171Y011611D01*
X011954Y011718D02*
X011954Y011932D01*
X011740Y011932D01*
X011527Y012145D02*
X011527Y011718D01*
X011633Y011611D01*
X011847Y011611D01*
X011954Y011718D01*
X012171Y011932D02*
X012598Y011932D01*
X012816Y012145D02*
X012922Y012252D01*
X013136Y012252D01*
X013243Y012145D01*
X013136Y011932D02*
X013029Y011932D01*
X011954Y012145D02*
X011847Y012252D01*
X011633Y012252D01*
X011527Y012145D01*
X011309Y012252D02*
X010882Y012252D01*
X010882Y011611D01*
X011309Y011611D01*
X011096Y011932D02*
X010882Y011932D01*
X010665Y012252D02*
X010665Y011611D01*
X010451Y012039D02*
X010665Y012252D01*
X010451Y012039D02*
X010238Y012252D01*
X010238Y011611D01*
X009806Y011611D02*
X009806Y012252D01*
X009593Y012252D02*
X010020Y012252D01*
X009375Y012039D02*
X009375Y011611D01*
X009375Y011932D02*
X008948Y011932D01*
X008948Y012039D02*
X009162Y012252D01*
X009375Y012039D01*
X008948Y012039D02*
X008948Y011611D01*
X009097Y014273D02*
X008847Y014523D01*
X008597Y014273D01*
X008097Y014273D01*
X007847Y014523D01*
X007597Y014273D01*
X007097Y014273D01*
X006847Y014523D01*
X006597Y014273D01*
X006097Y014273D01*
X005847Y014523D01*
X005597Y014273D01*
X005097Y014273D01*
X004847Y014523D01*
X004847Y015023D01*
X005097Y015273D01*
X005597Y015273D01*
X005847Y015023D01*
X006097Y015273D01*
X006597Y015273D01*
X006847Y015023D01*
X006847Y014523D01*
X006847Y015023D02*
X007097Y015273D01*
X007597Y015273D01*
X007847Y015023D01*
X008097Y015273D01*
X008597Y015273D01*
X008847Y015023D01*
X009097Y015273D01*
X009597Y015273D01*
X009847Y015023D01*
X009847Y014523D01*
X009597Y014273D01*
X009097Y014273D01*
X008847Y014523D02*
X008847Y015023D01*
X009847Y015023D02*
X010097Y015273D01*
X010597Y015273D01*
X010847Y015023D01*
X011097Y015273D01*
X011597Y015273D01*
X011847Y015023D01*
X012097Y015273D01*
X012597Y015273D01*
X012847Y015023D01*
X012847Y014523D01*
X012597Y014273D01*
X012097Y014273D01*
X011847Y014523D01*
X011597Y014273D01*
X011097Y014273D01*
X010847Y014523D01*
X010597Y014273D01*
X010097Y014273D01*
X009847Y014523D01*
X010847Y014523D02*
X010847Y015023D01*
X011847Y015023D02*
X011847Y014523D01*
X015443Y014634D02*
X015443Y015134D01*
X015693Y015384D01*
X015443Y015634D01*
X015443Y016134D01*
X015693Y016384D01*
X015443Y016634D01*
X015443Y017134D01*
X015693Y017384D01*
X016193Y017384D01*
X016443Y017134D01*
X016443Y016634D01*
X016193Y016384D01*
X016443Y016134D01*
X016443Y015634D01*
X016193Y015384D01*
X016443Y015134D01*
X016443Y014634D01*
X016193Y014384D01*
X015693Y014384D02*
X015443Y014634D01*
X015693Y015384D02*
X016193Y015384D01*
X016193Y016384D02*
X015693Y016384D01*
X018962Y018031D02*
X019492Y018031D01*
X019492Y018371D01*
X017444Y020392D02*
X017444Y022392D01*
X016444Y022392D01*
X016194Y022392D01*
X016194Y020392D01*
X016444Y020392D01*
X016444Y022392D01*
X016444Y020392D02*
X017444Y020392D01*
X007847Y015023D02*
X007847Y014523D01*
X005847Y014523D02*
X005847Y015023D01*
X003957Y016234D02*
X003707Y016234D01*
X002707Y016234D01*
X002707Y018234D01*
X003707Y018234D01*
X003957Y018234D01*
X003957Y016234D01*
X003707Y016234D02*
X003707Y018234D01*
X002168Y014831D02*
X001668Y014831D01*
X001418Y014581D01*
X001418Y014081D01*
X001668Y013831D01*
X002168Y013831D01*
X002418Y014081D01*
X002418Y014581D01*
X002168Y014831D01*
X002168Y013831D02*
X002418Y013581D01*
X002418Y013081D01*
X002168Y012831D01*
X002418Y012581D01*
X002418Y012081D01*
X002168Y011831D01*
X002418Y011581D01*
X002418Y011081D01*
X002168Y010831D01*
X002418Y010581D01*
X002418Y010081D01*
X002168Y009831D01*
X002418Y009581D01*
X002418Y009081D01*
X002168Y008831D01*
X001668Y008831D01*
X001418Y009081D01*
X001418Y009581D01*
X001668Y009831D01*
X001418Y010081D01*
X001418Y010581D01*
X001668Y010831D01*
X002168Y010831D01*
X001668Y010831D02*
X001418Y011081D01*
X001418Y011581D01*
X001668Y011831D01*
X001418Y012081D01*
X001418Y012581D01*
X001668Y012831D01*
X001418Y013081D01*
X001418Y013581D01*
X001668Y013831D01*
X001668Y012831D02*
X002168Y012831D01*
X002168Y011831D02*
X001668Y011831D01*
X001668Y009831D02*
X002168Y009831D01*
X002532Y008361D02*
X001532Y008361D01*
X001282Y008361D01*
X001282Y006361D01*
X001532Y006361D01*
X001532Y008361D01*
X002532Y008361D02*
X002532Y006361D01*
X001532Y006361D01*
X002369Y004489D02*
X002869Y004489D01*
X003119Y004239D01*
X003369Y004489D01*
X003869Y004489D01*
X004119Y004239D01*
X004369Y004489D01*
X004869Y004489D01*
X005119Y004239D01*
X005369Y004489D01*
X005869Y004489D01*
X006119Y004239D01*
X006369Y004489D01*
X006869Y004489D01*
X007119Y004239D01*
X007369Y004489D01*
X007869Y004489D01*
X008119Y004239D01*
X008369Y004489D01*
X008869Y004489D01*
X009119Y004239D01*
X009369Y004489D01*
X009869Y004489D01*
X010119Y004239D01*
X010119Y003739D01*
X009869Y003489D01*
X009369Y003489D01*
X009119Y003739D01*
X008869Y003489D01*
X008369Y003489D01*
X008119Y003739D01*
X008119Y004239D01*
X008119Y003739D02*
X007869Y003489D01*
X007369Y003489D01*
X007119Y003739D01*
X006869Y003489D01*
X006369Y003489D01*
X006119Y003739D01*
X005869Y003489D01*
X005369Y003489D01*
X005119Y003739D01*
X005119Y004239D01*
X005119Y003739D02*
X004869Y003489D01*
X004369Y003489D01*
X004119Y003739D01*
X003869Y003489D01*
X003369Y003489D01*
X003119Y003739D01*
X002869Y003489D01*
X002369Y003489D01*
X002119Y003739D01*
X002119Y004239D01*
X002369Y004489D01*
X003119Y004239D02*
X003119Y003739D01*
X004119Y003739D02*
X004119Y004239D01*
X006119Y004239D02*
X006119Y003739D01*
X007119Y003739D02*
X007119Y004239D01*
X006959Y002713D02*
X006459Y002713D01*
X006209Y002463D01*
X006209Y001963D01*
X006459Y001713D01*
X006959Y001713D01*
X007209Y001963D01*
X007459Y001713D01*
X007959Y001713D01*
X008209Y001963D01*
X008209Y002463D01*
X007959Y002713D01*
X007459Y002713D01*
X007209Y002463D01*
X007209Y001963D01*
X007209Y002463D02*
X006959Y002713D01*
X008209Y002463D02*
X008459Y002713D01*
X008959Y002713D01*
X009209Y002463D01*
X009459Y002713D01*
X009959Y002713D01*
X010209Y002463D01*
X010209Y001963D01*
X009959Y001713D01*
X009459Y001713D01*
X009209Y001963D01*
X008959Y001713D01*
X008459Y001713D01*
X008209Y001963D01*
X009209Y001963D02*
X009209Y002463D01*
X009119Y003739D02*
X009119Y004239D01*
X006143Y007116D02*
X006143Y009516D01*
X006141Y009566D01*
X006135Y009615D01*
X006126Y009664D01*
X006113Y009712D01*
X006096Y009759D01*
X006076Y009804D01*
X006052Y009848D01*
X006025Y009890D01*
X005994Y009930D01*
X005961Y009967D01*
X005925Y010001D01*
X005887Y010033D01*
X005846Y010062D01*
X005804Y010087D01*
X005759Y010109D01*
X005713Y010128D01*
X005665Y010143D01*
X005617Y010154D01*
X005568Y010162D01*
X005518Y010166D01*
X005468Y010166D01*
X005418Y010162D01*
X005369Y010154D01*
X005321Y010143D01*
X005273Y010128D01*
X005227Y010109D01*
X005182Y010087D01*
X005140Y010062D01*
X005099Y010033D01*
X005061Y010001D01*
X005025Y009967D01*
X004992Y009930D01*
X004961Y009890D01*
X004934Y009848D01*
X004910Y009804D01*
X004890Y009759D01*
X004873Y009712D01*
X004860Y009664D01*
X004851Y009615D01*
X004845Y009566D01*
X004843Y009516D01*
X004843Y007116D01*
X004845Y007066D01*
X004851Y007017D01*
X004860Y006968D01*
X004873Y006920D01*
X004890Y006873D01*
X004910Y006828D01*
X004934Y006784D01*
X004961Y006742D01*
X004992Y006702D01*
X005025Y006665D01*
X005061Y006631D01*
X005099Y006599D01*
X005140Y006570D01*
X005182Y006545D01*
X005227Y006523D01*
X005273Y006504D01*
X005321Y006489D01*
X005369Y006478D01*
X005418Y006470D01*
X005468Y006466D01*
X005518Y006466D01*
X005568Y006470D01*
X005617Y006478D01*
X005665Y006489D01*
X005713Y006504D01*
X005759Y006523D01*
X005804Y006545D01*
X005846Y006570D01*
X005887Y006599D01*
X005925Y006631D01*
X005961Y006665D01*
X005994Y006702D01*
X006025Y006742D01*
X006052Y006784D01*
X006076Y006828D01*
X006096Y006873D01*
X006113Y006920D01*
X006126Y006968D01*
X006135Y007017D01*
X006141Y007066D01*
X006143Y007116D01*
X005493Y007816D02*
X005493Y008066D01*
X005793Y008066D01*
X005793Y008216D02*
X005193Y008216D01*
X005193Y008416D01*
X005793Y008416D01*
X005793Y008216D01*
X005793Y008566D02*
X005493Y008566D01*
X005493Y008816D01*
X005493Y008566D02*
X005193Y008566D01*
X005193Y008066D02*
X005493Y008066D01*
X015810Y007317D02*
X016310Y007317D01*
D13*
X008733Y010406D02*
X008735Y010426D01*
X008740Y010446D01*
X008750Y010464D01*
X008762Y010481D01*
X008777Y010495D01*
X008795Y010505D01*
X008814Y010513D01*
X008834Y010517D01*
X008854Y010517D01*
X008874Y010513D01*
X008893Y010505D01*
X008911Y010495D01*
X008926Y010481D01*
X008938Y010464D01*
X008948Y010446D01*
X008953Y010426D01*
X008955Y010406D01*
X008953Y010386D01*
X008948Y010366D01*
X008938Y010348D01*
X008926Y010331D01*
X008911Y010317D01*
X008893Y010307D01*
X008874Y010299D01*
X008854Y010295D01*
X008834Y010295D01*
X008814Y010299D01*
X008795Y010307D01*
X008777Y010317D01*
X008762Y010331D01*
X008750Y010348D01*
X008740Y010366D01*
X008735Y010386D01*
X008733Y010406D01*
D14*
X008529Y010564D02*
X008529Y007099D01*
X008686Y006942D01*
X012151Y006942D01*
X012308Y007099D01*
X012308Y010564D01*
X012151Y010721D01*
X008686Y010721D01*
X008529Y010564D01*
X011229Y020053D02*
X011229Y022413D01*
X011229Y020053D02*
X013810Y020053D01*
X013809Y022413D01*
D15*
X018677Y008731D02*
X018677Y008310D01*
X018677Y008521D02*
X018046Y008521D01*
X018257Y008310D01*
X018257Y008086D02*
X018152Y008086D01*
X018046Y007981D01*
X018046Y007666D01*
X018677Y007666D01*
X018677Y007981D01*
X018572Y008086D01*
X018467Y008086D01*
X018362Y007981D01*
X018362Y007666D01*
X018362Y007981D02*
X018257Y008086D01*
D16*
X019302Y016881D03*
D17*
X019377Y016956D03*
X019377Y016806D03*
D18*
X019222Y016881D03*
D19*
X018472Y016156D02*
X018547Y016081D01*
X018547Y015856D01*
X018697Y015856D02*
X018247Y015856D01*
X018247Y016081D01*
X018322Y016156D01*
X018472Y016156D01*
X018322Y015696D02*
X018622Y015696D01*
X018697Y015621D01*
X018697Y015471D01*
X018622Y015396D01*
X018322Y015696D01*
X018247Y015621D01*
X018247Y015471D01*
X018322Y015396D01*
X018622Y015396D01*
X018697Y015235D02*
X018697Y014935D01*
X018397Y015235D01*
X018322Y015235D01*
X018247Y015160D01*
X018247Y015010D01*
X018322Y014935D01*
X018472Y014315D02*
X018547Y014315D01*
X018547Y014014D01*
X018622Y014014D02*
X018472Y014014D01*
X018397Y014090D01*
X018397Y014240D01*
X018472Y014315D01*
X018697Y014240D02*
X018697Y014090D01*
X018622Y014014D01*
X018697Y013858D02*
X018697Y013708D01*
X018697Y013783D02*
X018247Y013783D01*
X018247Y013708D01*
X018472Y013547D02*
X018397Y013472D01*
X018397Y013247D01*
X018247Y013247D02*
X018697Y013247D01*
X018697Y013472D01*
X018622Y013547D01*
X018472Y013547D01*
X018472Y013087D02*
X018697Y013087D01*
X018697Y012862D01*
X018622Y012787D01*
X018547Y012862D01*
X018547Y013087D01*
X018472Y013087D02*
X018397Y013012D01*
X018397Y012862D01*
X018322Y012627D02*
X018247Y012552D01*
X018247Y012402D01*
X018322Y012327D01*
X018622Y012327D01*
X018697Y012402D01*
X018697Y012552D01*
X018622Y012627D01*
X018472Y012166D02*
X018472Y011866D01*
X018472Y011706D02*
X018322Y011706D01*
X018247Y011631D01*
X018247Y011406D01*
X018697Y011406D01*
X018547Y011406D02*
X018547Y011631D01*
X018472Y011706D01*
X018547Y011556D02*
X018697Y011706D01*
X017255Y008212D02*
X017255Y007912D01*
X017255Y008062D02*
X016805Y008062D01*
X016955Y007912D01*
X016880Y007752D02*
X016805Y007677D01*
X016805Y007526D01*
X016880Y007451D01*
X017180Y007451D01*
X017255Y007526D01*
X017255Y007677D01*
X017180Y007752D01*
X017030Y007291D02*
X017105Y007216D01*
X017105Y006991D01*
X017255Y006991D02*
X016805Y006991D01*
X016805Y007216D01*
X016880Y007291D01*
X017030Y007291D01*
X016805Y006831D02*
X016805Y006681D01*
X016805Y006756D02*
X017180Y006756D01*
X017255Y006681D01*
X017255Y006606D01*
X017180Y006531D01*
X015123Y009379D02*
X015198Y009454D01*
X015198Y009529D01*
X015123Y009604D01*
X014748Y009604D01*
X014748Y009529D02*
X014748Y009679D01*
X014748Y009839D02*
X014748Y010064D01*
X014823Y010139D01*
X014973Y010139D01*
X015048Y010064D01*
X015048Y009839D01*
X015198Y009839D02*
X014748Y009839D01*
X014898Y010299D02*
X014748Y010450D01*
X014898Y010600D01*
X015198Y010600D01*
X014973Y010600D02*
X014973Y010299D01*
X014898Y010299D02*
X015198Y010299D01*
X009863Y003244D02*
X009863Y002794D01*
X009713Y002794D02*
X010013Y002794D01*
X009713Y003094D02*
X009863Y003244D01*
X009553Y003169D02*
X009478Y003244D01*
X009253Y003244D01*
X009253Y002794D01*
X009478Y002794D01*
X009553Y002869D01*
X009553Y003169D01*
X009093Y003169D02*
X009093Y003019D01*
X009017Y002944D01*
X008792Y002944D01*
X008792Y002794D02*
X008792Y003244D01*
X009017Y003244D01*
X009093Y003169D01*
X008632Y003244D02*
X008482Y003244D01*
X008557Y003244D02*
X008557Y002869D01*
X008482Y002794D01*
X008407Y002794D01*
X008332Y002869D01*
X007885Y002958D02*
X007585Y002958D01*
X007885Y003258D01*
X007885Y003333D01*
X007810Y003408D01*
X007660Y003408D01*
X007585Y003333D01*
X007425Y003333D02*
X007350Y003408D01*
X007200Y003408D01*
X007125Y003333D01*
X007125Y003033D01*
X007200Y002958D01*
X007350Y002958D01*
X007425Y003033D01*
X006965Y003183D02*
X006890Y003108D01*
X006664Y003108D01*
X006664Y002958D02*
X006664Y003408D01*
X006890Y003408D01*
X006965Y003333D01*
X006965Y003183D01*
X006504Y003408D02*
X006354Y003408D01*
X006429Y003408D02*
X006429Y003033D01*
X006354Y002958D01*
X006279Y002958D01*
X006204Y003033D01*
X004343Y006341D02*
X004043Y006341D01*
X003968Y006416D01*
X003968Y006566D01*
X004043Y006641D01*
X004343Y006641D01*
X004418Y006566D01*
X004418Y006416D01*
X004343Y006341D01*
X004268Y006491D02*
X004418Y006641D01*
X004418Y006801D02*
X004418Y007101D01*
X004418Y006951D02*
X003968Y006951D01*
X004118Y006801D01*
X001173Y008902D02*
X001173Y008977D01*
X001098Y009052D01*
X000723Y009052D01*
X000723Y008977D02*
X000723Y009127D01*
X000723Y009287D02*
X000723Y009512D01*
X000798Y009587D01*
X000948Y009587D01*
X001023Y009512D01*
X001023Y009287D01*
X001173Y009287D02*
X000723Y009287D01*
X000723Y009747D02*
X000723Y009972D01*
X000798Y010047D01*
X000948Y010047D01*
X001023Y009972D01*
X001023Y009747D01*
X001023Y009897D02*
X001173Y010047D01*
X001098Y010208D02*
X001173Y010283D01*
X001173Y010433D01*
X001098Y010508D01*
X000798Y010508D01*
X000723Y010433D01*
X000723Y010283D01*
X000798Y010208D01*
X001098Y010208D01*
X001098Y010668D02*
X000798Y010668D01*
X000723Y010743D01*
X000723Y010893D01*
X000798Y010968D01*
X000948Y010968D02*
X000948Y010818D01*
X000948Y010968D02*
X001098Y010968D01*
X001173Y010893D01*
X001173Y010743D01*
X001098Y010668D01*
X001173Y009747D02*
X000723Y009747D01*
X001173Y008902D02*
X001098Y008826D01*
X004917Y015518D02*
X004992Y015518D01*
X005067Y015594D01*
X005067Y015969D01*
X004992Y015969D02*
X005142Y015969D01*
X005302Y015969D02*
X005302Y015518D01*
X005302Y015669D02*
X005527Y015669D01*
X005602Y015744D01*
X005602Y015894D01*
X005527Y015969D01*
X005302Y015969D01*
X005762Y015969D02*
X005762Y015518D01*
X005987Y015518D01*
X006062Y015594D01*
X006062Y015669D01*
X005987Y015744D01*
X005762Y015744D01*
X005762Y015969D02*
X005987Y015969D01*
X006062Y015894D01*
X006062Y015819D01*
X005987Y015744D01*
X004917Y015518D02*
X004842Y015594D01*
X019417Y002619D02*
X019417Y002169D01*
X019643Y002169D01*
X019718Y002244D01*
X019718Y002544D01*
X019643Y002619D01*
X019417Y002619D01*
X019878Y002469D02*
X019878Y002169D01*
X019878Y002394D02*
X020178Y002394D01*
X020178Y002469D02*
X020178Y002169D01*
X020178Y002469D02*
X020028Y002619D01*
X019878Y002469D01*
X020338Y002619D02*
X020638Y002619D01*
X020488Y002619D02*
X020488Y002169D01*
X020799Y002169D02*
X020799Y002469D01*
X020949Y002619D01*
X021099Y002469D01*
X021099Y002169D01*
X021099Y002394D02*
X020799Y002394D01*
D20*
X006343Y007116D02*
X006343Y009516D01*
X006341Y009573D01*
X006335Y009629D01*
X006326Y009685D01*
X006313Y009741D01*
X006296Y009795D01*
X006276Y009848D01*
X006252Y009899D01*
X006224Y009949D01*
X006194Y009997D01*
X006160Y010043D01*
X006123Y010086D01*
X006084Y010127D01*
X006042Y010165D01*
X005997Y010200D01*
X005950Y010232D01*
X005901Y010261D01*
X005851Y010287D01*
X005798Y010309D01*
X005745Y010328D01*
X005690Y010343D01*
X005634Y010354D01*
X005578Y010362D01*
X005521Y010366D01*
X005465Y010366D01*
X005408Y010362D01*
X005352Y010354D01*
X005296Y010343D01*
X005241Y010328D01*
X005188Y010309D01*
X005135Y010287D01*
X005085Y010261D01*
X005036Y010232D01*
X004989Y010200D01*
X004944Y010165D01*
X004902Y010127D01*
X004863Y010086D01*
X004826Y010043D01*
X004792Y009997D01*
X004762Y009949D01*
X004734Y009899D01*
X004710Y009848D01*
X004690Y009795D01*
X004673Y009741D01*
X004660Y009685D01*
X004651Y009629D01*
X004645Y009573D01*
X004643Y009516D01*
X004643Y007116D01*
X004645Y007059D01*
X004651Y007003D01*
X004660Y006947D01*
X004673Y006891D01*
X004690Y006837D01*
X004710Y006784D01*
X004734Y006733D01*
X004762Y006683D01*
X004792Y006635D01*
X004826Y006589D01*
X004863Y006546D01*
X004902Y006505D01*
X004944Y006467D01*
X004989Y006432D01*
X005036Y006400D01*
X005085Y006371D01*
X005135Y006345D01*
X005188Y006323D01*
X005241Y006304D01*
X005296Y006289D01*
X005352Y006278D01*
X005408Y006270D01*
X005465Y006266D01*
X005521Y006266D01*
X005578Y006270D01*
X005634Y006278D01*
X005690Y006289D01*
X005745Y006304D01*
X005798Y006323D01*
X005851Y006345D01*
X005901Y006371D01*
X005950Y006400D01*
X005997Y006432D01*
X006042Y006467D01*
X006084Y006505D01*
X006123Y006546D01*
X006160Y006589D01*
X006194Y006635D01*
X006224Y006683D01*
X006252Y006733D01*
X006276Y006784D01*
X006296Y006837D01*
X006313Y006891D01*
X006326Y006947D01*
X006335Y007003D01*
X006341Y007059D01*
X006343Y007116D01*
D21*
X004624Y007329D02*
X004624Y007453D01*
X004562Y007514D01*
X004624Y007636D02*
X004377Y007883D01*
X004315Y007883D01*
X004253Y007821D01*
X004253Y007697D01*
X004315Y007636D01*
X004315Y007514D02*
X004253Y007453D01*
X004253Y007329D01*
X004315Y007267D01*
X004562Y007267D01*
X004624Y007329D01*
X004624Y007636D02*
X004624Y007883D01*
X003727Y009304D02*
X003481Y009304D01*
X003419Y009365D01*
X003419Y009489D01*
X003481Y009551D01*
X003542Y009672D02*
X003419Y009795D01*
X003789Y009795D01*
X003789Y009672D02*
X003789Y009919D01*
X003727Y009551D02*
X003789Y009489D01*
X003789Y009365D01*
X003727Y009304D01*
X007137Y009327D02*
X007199Y009389D01*
X007260Y009389D01*
X007322Y009327D01*
X007384Y009389D01*
X007446Y009389D01*
X007507Y009327D01*
X007507Y009204D01*
X007446Y009142D01*
X007446Y009021D02*
X007507Y008959D01*
X007507Y008836D01*
X007446Y008774D01*
X007199Y008774D01*
X007137Y008836D01*
X007137Y008959D01*
X007199Y009021D01*
X007199Y009142D02*
X007137Y009204D01*
X007137Y009327D01*
X007322Y009327D02*
X007322Y009266D01*
X010564Y005293D02*
X010502Y005232D01*
X010502Y004985D01*
X010564Y004923D01*
X010687Y004923D01*
X010749Y004985D01*
X010870Y005108D02*
X011117Y005108D01*
X011056Y004923D02*
X011056Y005293D01*
X010870Y005108D01*
X010749Y005232D02*
X010687Y005293D01*
X010564Y005293D01*
X014094Y008665D02*
X014156Y008603D01*
X014403Y008603D01*
X014465Y008665D01*
X014465Y008789D01*
X014403Y008850D01*
X014403Y008972D02*
X014465Y009033D01*
X014465Y009157D01*
X014403Y009219D01*
X014279Y009219D01*
X014218Y009157D01*
X014218Y009095D01*
X014279Y008972D01*
X014094Y008972D01*
X014094Y009219D01*
X014156Y008850D02*
X014094Y008789D01*
X014094Y008665D01*
X012376Y012917D02*
X012438Y012979D01*
X012438Y013041D01*
X012376Y013102D01*
X012191Y013102D01*
X012191Y012979D01*
X012253Y012917D01*
X012376Y012917D01*
X012191Y013102D02*
X012315Y013226D01*
X012438Y013287D01*
X012070Y013226D02*
X012008Y013287D01*
X011885Y013287D01*
X011823Y013226D01*
X011823Y012979D01*
X011885Y012917D01*
X012008Y012917D01*
X012070Y012979D01*
D22*
X012135Y017268D02*
X012212Y017345D01*
X012135Y017268D02*
X011982Y017268D01*
X011905Y017345D01*
X011905Y017652D01*
X011982Y017728D01*
X012135Y017728D01*
X012212Y017652D01*
X012366Y017498D02*
X012672Y017498D01*
X012826Y017345D02*
X012903Y017268D01*
X013056Y017268D01*
X013133Y017345D01*
X013133Y017421D01*
X013056Y017498D01*
X012979Y017498D01*
X013056Y017498D02*
X013133Y017575D01*
X013133Y017652D01*
X013056Y017728D01*
X012903Y017728D01*
X012826Y017652D01*
X012596Y017728D02*
X012596Y017268D01*
X012366Y017498D02*
X012596Y017728D01*
X012632Y018286D02*
X012939Y018593D01*
X012939Y018670D01*
X012862Y018747D01*
X012709Y018747D01*
X012632Y018670D01*
X012478Y018516D02*
X012172Y018516D01*
X012402Y018747D01*
X012402Y018286D01*
X012632Y018286D02*
X012939Y018286D01*
X012018Y018363D02*
X011941Y018286D01*
X011788Y018286D01*
X011711Y018363D01*
X011711Y018670D01*
X011788Y018747D01*
X011941Y018747D01*
X012018Y018670D01*
X010999Y019923D02*
X010923Y019923D01*
X010616Y020230D01*
X010539Y020230D01*
X010539Y019923D01*
X010616Y020384D02*
X010693Y020384D01*
X010769Y020460D01*
X010769Y020614D01*
X010846Y020690D01*
X010923Y020690D01*
X010999Y020614D01*
X010999Y020460D01*
X010923Y020384D01*
X010846Y020384D01*
X010769Y020460D01*
X010769Y020614D02*
X010693Y020690D01*
X010616Y020690D01*
X010539Y020614D01*
X010539Y020460D01*
X010616Y020384D01*
X010616Y020844D02*
X010539Y020921D01*
X010539Y021074D01*
X010616Y021151D01*
X010923Y020844D01*
X010999Y020921D01*
X010999Y021074D01*
X010923Y021151D01*
X010616Y021151D01*
X010539Y021304D02*
X010769Y021304D01*
X010693Y021458D01*
X010693Y021534D01*
X010769Y021611D01*
X010923Y021611D01*
X010999Y021534D01*
X010999Y021381D01*
X010923Y021304D01*
X010539Y021304D02*
X010539Y021611D01*
X010539Y021765D02*
X010539Y021995D01*
X010616Y022071D01*
X010923Y022071D01*
X010999Y021995D01*
X010999Y021765D01*
X010539Y021765D01*
X010616Y020844D02*
X010923Y020844D01*
X010046Y019907D02*
X010046Y019830D01*
X009970Y019754D01*
X010046Y019677D01*
X010046Y019600D01*
X009970Y019523D01*
X009816Y019523D01*
X009739Y019600D01*
X009586Y019600D02*
X009586Y019907D01*
X009509Y019984D01*
X009279Y019984D01*
X009279Y019523D01*
X009509Y019523D01*
X009586Y019600D01*
X009893Y019754D02*
X009970Y019754D01*
X010046Y019907D02*
X009970Y019984D01*
X009816Y019984D01*
X009739Y019907D01*
X009593Y021158D02*
X009133Y021158D01*
X009593Y021158D02*
X009593Y021465D01*
X009593Y021618D02*
X009593Y021925D01*
X009593Y022079D02*
X009593Y022309D01*
X009517Y022386D01*
X009210Y022386D01*
X009133Y022309D01*
X009133Y022079D01*
X009593Y022079D01*
X009363Y021772D02*
X009363Y021618D01*
X009133Y021618D02*
X009593Y021618D01*
X009133Y021618D02*
X009133Y021925D01*
X009210Y022539D02*
X009133Y022616D01*
X009133Y022769D01*
X009210Y022846D01*
X009286Y022846D01*
X009593Y022539D01*
X009593Y022846D01*
X014299Y019511D02*
X014299Y019051D01*
X014529Y019051D01*
X014606Y019128D01*
X014606Y019435D01*
X014529Y019511D01*
X014299Y019511D01*
X014759Y019435D02*
X014759Y019128D01*
X015066Y019435D01*
X015066Y019128D01*
X014989Y019051D01*
X014836Y019051D01*
X014759Y019128D01*
X014759Y019435D02*
X014836Y019511D01*
X014989Y019511D01*
X015066Y019435D01*
X017744Y020382D02*
X017974Y020382D01*
X017897Y020535D01*
X017897Y020612D01*
X017974Y020689D01*
X018127Y020689D01*
X018204Y020612D01*
X018204Y020458D01*
X018127Y020382D01*
X017744Y020382D02*
X017744Y020689D01*
X017744Y020842D02*
X018051Y020842D01*
X018204Y020995D01*
X018051Y021149D01*
X017744Y021149D01*
X003341Y022741D02*
X003341Y023048D01*
X003341Y022741D02*
X003187Y022588D01*
X003034Y022741D01*
X003034Y023048D01*
X002880Y022971D02*
X002880Y022895D01*
X002804Y022818D01*
X002650Y022818D01*
X002573Y022895D01*
X002573Y022971D01*
X002650Y023048D01*
X002804Y023048D01*
X002880Y022971D01*
X002804Y022818D02*
X002880Y022741D01*
X002880Y022664D01*
X002804Y022588D01*
X002650Y022588D01*
X002573Y022664D01*
X002573Y022741D01*
X002650Y022818D01*
X002407Y018130D02*
X002407Y017823D01*
X002101Y018130D01*
X002024Y018130D01*
X001947Y018053D01*
X001947Y017900D01*
X002024Y017823D01*
X002024Y017670D02*
X002101Y017670D01*
X002177Y017593D01*
X002177Y017363D01*
X001947Y017363D02*
X001947Y017593D01*
X002024Y017670D01*
X002177Y017593D02*
X002254Y017670D01*
X002331Y017670D01*
X002407Y017593D01*
X002407Y017363D01*
X001947Y017363D01*
X002826Y011538D02*
X002826Y011231D01*
X002826Y011078D02*
X002672Y010924D01*
X002672Y011001D02*
X002672Y010771D01*
X002826Y010771D02*
X002366Y010771D01*
X002366Y011001D01*
X002442Y011078D01*
X002596Y011078D01*
X002672Y011001D01*
X002519Y011231D02*
X002366Y011385D01*
X002826Y011385D01*
X002831Y008499D02*
X002831Y008192D01*
X002831Y008345D02*
X003292Y008345D01*
X003292Y008039D02*
X003292Y007732D01*
X002831Y007732D01*
X002831Y008039D01*
X003061Y007885D02*
X003061Y007732D01*
X003138Y007578D02*
X003215Y007578D01*
X003292Y007501D01*
X003292Y007348D01*
X003215Y007271D01*
X003292Y007118D02*
X003292Y006811D01*
X002831Y006811D01*
X002831Y007118D01*
X002908Y007271D02*
X002985Y007271D01*
X003061Y007348D01*
X003061Y007501D01*
X003138Y007578D01*
X002908Y007578D02*
X002831Y007501D01*
X002831Y007348D01*
X002908Y007271D01*
X003061Y006964D02*
X003061Y006811D01*
X003061Y006657D02*
X003138Y006581D01*
X003138Y006351D01*
X003138Y006504D02*
X003292Y006657D01*
X003061Y006657D02*
X002908Y006657D01*
X002831Y006581D01*
X002831Y006351D01*
X003292Y006351D01*
D23*
X002032Y006861D03*
X002032Y007861D03*
X003207Y016734D03*
X003207Y017734D03*
X016944Y020892D03*
X016944Y021892D03*
D24*
X012519Y019863D03*
D25*
X007833Y019642D02*
X007833Y018993D01*
X007636Y018993D01*
X007636Y019642D01*
X007045Y019493D02*
X007045Y022142D01*
X007636Y022142D01*
X007636Y021493D01*
X007833Y021493D02*
X007833Y022142D01*
X007636Y022142D01*
X007045Y022142D02*
X007045Y022339D01*
X002321Y022339D01*
X002321Y021828D01*
X002715Y021828D01*
X002321Y021828D02*
X002321Y019308D01*
X002715Y019308D01*
X002321Y019308D02*
X002321Y018796D01*
X005545Y018796D01*
X005471Y019308D02*
X005864Y019308D01*
X005864Y019544D01*
X005864Y019938D02*
X005864Y020174D01*
X005864Y020961D01*
X005864Y021198D01*
X005864Y021591D02*
X005864Y021828D01*
X005471Y021828D01*
X005077Y021828D02*
X004683Y021828D01*
X004290Y021828D02*
X003896Y021828D01*
X003699Y022142D02*
X007045Y022142D01*
X005077Y019308D02*
X004683Y019308D01*
X004290Y019308D02*
X003896Y019308D01*
X003502Y019308D02*
X003108Y019308D01*
X003699Y018796D02*
X003699Y022142D01*
X003699Y022339D01*
X003502Y021828D02*
X003108Y021828D01*
X003108Y020962D02*
X003069Y020960D01*
X003031Y020954D01*
X002994Y020945D01*
X002957Y020932D01*
X002922Y020915D01*
X002889Y020896D01*
X002858Y020873D01*
X002829Y020847D01*
X002803Y020818D01*
X002780Y020787D01*
X002761Y020754D01*
X002744Y020719D01*
X002731Y020682D01*
X002722Y020645D01*
X002716Y020607D01*
X002714Y020568D01*
X002716Y020529D01*
X002722Y020491D01*
X002731Y020454D01*
X002744Y020417D01*
X002761Y020382D01*
X002780Y020349D01*
X002803Y020318D01*
X002829Y020289D01*
X002858Y020263D01*
X002889Y020240D01*
X002922Y020221D01*
X002957Y020204D01*
X002994Y020191D01*
X003031Y020182D01*
X003069Y020176D01*
X003108Y020174D01*
D26*
X009981Y019274D03*
X009981Y018733D03*
X015000Y018802D03*
X015000Y018260D03*
D27*
X014848Y018531D03*
X010113Y021707D03*
X009828Y019003D03*
D28*
X009843Y021860D03*
X010384Y021860D03*
M02*
