G75*
G70*
%OFA0B0*%
%FSLAX24Y24*%
%IPPOS*%
%LPD*%
%AMOC8*
5,1,8,0,0,1.08239X$1,22.5*
%
%ADD10C,0.0320*%
%ADD11C,0.0000*%
%ADD12C,0.0560*%
%ADD13OC8,0.0560*%
%ADD14C,0.0520*%
%ADD15C,0.0600*%
%ADD16R,0.0394X0.0433*%
%ADD17C,0.0860*%
%ADD18C,0.0240*%
%ADD19C,0.0500*%
%ADD20C,0.0160*%
%ADD21C,0.0396*%
%ADD22OC8,0.0396*%
%ADD23C,0.0400*%
%ADD24OC8,0.0357*%
%ADD25C,0.0357*%
D10*
X000262Y000262D02*
X000262Y024345D01*
X022758Y024345D01*
X022758Y000262D01*
X000262Y000262D01*
X001033Y005259D02*
X001033Y006952D01*
X001072Y006991D01*
X001072Y006164D01*
X001230Y006007D01*
X001230Y007149D01*
X000954Y007424D01*
X000954Y008842D01*
X000994Y008842D01*
X001269Y009117D01*
X002254Y009117D01*
X002332Y009196D01*
X002332Y009432D01*
X002254Y009511D01*
X002057Y009511D02*
X002293Y009275D01*
X001427Y009275D01*
X001191Y009511D01*
X002057Y009511D01*
X001309Y009196D02*
X001191Y009196D01*
X001072Y009314D01*
X001072Y009038D01*
X001112Y008999D01*
X000954Y008842D01*
X001112Y008999D02*
X001309Y009196D01*
X001191Y009511D02*
X000876Y009826D01*
X000876Y007503D01*
X000954Y007424D01*
X000876Y007424D02*
X000876Y005416D01*
X001033Y005259D01*
X001466Y006125D02*
X001466Y006834D01*
X000876Y007424D01*
X001230Y007149D02*
X001348Y007031D01*
X002372Y007031D01*
X002490Y006912D01*
X003710Y006912D01*
X003828Y006794D01*
X004498Y006125D01*
X004655Y005968D01*
X004301Y005968D01*
X003513Y006755D01*
X001309Y006755D01*
X001230Y006676D01*
X003238Y006676D01*
X003828Y006086D01*
X003513Y006086D01*
X003120Y006479D01*
X002805Y006479D01*
X003159Y006125D01*
X002805Y006125D01*
X002687Y006243D01*
X002569Y006243D01*
X002411Y006086D01*
X002175Y006322D01*
X002175Y006204D01*
X002017Y006046D01*
X002017Y006125D01*
X001781Y006361D01*
X001781Y006164D01*
X001663Y006046D01*
X001663Y006125D01*
X001466Y006322D01*
X001348Y006322D01*
X001269Y006401D01*
X001269Y006322D01*
X001466Y006125D01*
X001230Y006479D02*
X002805Y006479D01*
X002490Y006755D02*
X002490Y006912D01*
X002372Y006794D01*
X002372Y006637D01*
X002490Y006755D01*
X003828Y006794D02*
X003828Y006597D01*
X004498Y005928D01*
X004498Y006125D01*
X000876Y009826D02*
X000876Y011597D01*
X000915Y011637D01*
X000915Y011716D01*
X001918Y011331D02*
X002939Y011331D01*
X003106Y011498D01*
X003106Y012168D02*
X004125Y013187D01*
X004125Y013938D01*
X009972Y020377D02*
X009972Y020388D01*
X009604Y020756D01*
X010641Y020377D02*
X015554Y020377D01*
X016059Y020882D01*
X016934Y020882D01*
X016944Y020892D01*
X020842Y007881D02*
X017720Y004759D01*
X017720Y003294D01*
X017717Y003297D01*
D11*
X021050Y001266D02*
X021052Y001316D01*
X021058Y001366D01*
X021068Y001415D01*
X021082Y001463D01*
X021099Y001510D01*
X021120Y001555D01*
X021145Y001599D01*
X021173Y001640D01*
X021205Y001679D01*
X021239Y001716D01*
X021276Y001750D01*
X021316Y001780D01*
X021358Y001807D01*
X021402Y001831D01*
X021448Y001852D01*
X021495Y001868D01*
X021543Y001881D01*
X021593Y001890D01*
X021642Y001895D01*
X021693Y001896D01*
X021743Y001893D01*
X021792Y001886D01*
X021841Y001875D01*
X021889Y001860D01*
X021935Y001842D01*
X021980Y001820D01*
X022023Y001794D01*
X022064Y001765D01*
X022103Y001733D01*
X022139Y001698D01*
X022171Y001660D01*
X022201Y001620D01*
X022228Y001577D01*
X022251Y001533D01*
X022270Y001487D01*
X022286Y001439D01*
X022298Y001390D01*
X022306Y001341D01*
X022310Y001291D01*
X022310Y001241D01*
X022306Y001191D01*
X022298Y001142D01*
X022286Y001093D01*
X022270Y001045D01*
X022251Y000999D01*
X022228Y000955D01*
X022201Y000912D01*
X022171Y000872D01*
X022139Y000834D01*
X022103Y000799D01*
X022064Y000767D01*
X022023Y000738D01*
X021980Y000712D01*
X021935Y000690D01*
X021889Y000672D01*
X021841Y000657D01*
X021792Y000646D01*
X021743Y000639D01*
X021693Y000636D01*
X021642Y000637D01*
X021593Y000642D01*
X021543Y000651D01*
X021495Y000664D01*
X021448Y000680D01*
X021402Y000701D01*
X021358Y000725D01*
X021316Y000752D01*
X021276Y000782D01*
X021239Y000816D01*
X021205Y000853D01*
X021173Y000892D01*
X021145Y000933D01*
X021120Y000977D01*
X021099Y001022D01*
X021082Y001069D01*
X021068Y001117D01*
X021058Y001166D01*
X021052Y001216D01*
X021050Y001266D01*
X000729Y001209D02*
X000731Y001259D01*
X000737Y001309D01*
X000747Y001358D01*
X000761Y001406D01*
X000778Y001453D01*
X000799Y001498D01*
X000824Y001542D01*
X000852Y001583D01*
X000884Y001622D01*
X000918Y001659D01*
X000955Y001693D01*
X000995Y001723D01*
X001037Y001750D01*
X001081Y001774D01*
X001127Y001795D01*
X001174Y001811D01*
X001222Y001824D01*
X001272Y001833D01*
X001321Y001838D01*
X001372Y001839D01*
X001422Y001836D01*
X001471Y001829D01*
X001520Y001818D01*
X001568Y001803D01*
X001614Y001785D01*
X001659Y001763D01*
X001702Y001737D01*
X001743Y001708D01*
X001782Y001676D01*
X001818Y001641D01*
X001850Y001603D01*
X001880Y001563D01*
X001907Y001520D01*
X001930Y001476D01*
X001949Y001430D01*
X001965Y001382D01*
X001977Y001333D01*
X001985Y001284D01*
X001989Y001234D01*
X001989Y001184D01*
X001985Y001134D01*
X001977Y001085D01*
X001965Y001036D01*
X001949Y000988D01*
X001930Y000942D01*
X001907Y000898D01*
X001880Y000855D01*
X001850Y000815D01*
X001818Y000777D01*
X001782Y000742D01*
X001743Y000710D01*
X001702Y000681D01*
X001659Y000655D01*
X001614Y000633D01*
X001568Y000615D01*
X001520Y000600D01*
X001471Y000589D01*
X001422Y000582D01*
X001372Y000579D01*
X001321Y000580D01*
X001272Y000585D01*
X001222Y000594D01*
X001174Y000607D01*
X001127Y000623D01*
X001081Y000644D01*
X001037Y000668D01*
X000995Y000695D01*
X000955Y000725D01*
X000918Y000759D01*
X000884Y000796D01*
X000852Y000835D01*
X000824Y000876D01*
X000799Y000920D01*
X000778Y000965D01*
X000761Y001012D01*
X000747Y001060D01*
X000737Y001109D01*
X000731Y001159D01*
X000729Y001209D01*
X000777Y023224D02*
X000779Y023274D01*
X000785Y023324D01*
X000795Y023373D01*
X000809Y023421D01*
X000826Y023468D01*
X000847Y023513D01*
X000872Y023557D01*
X000900Y023598D01*
X000932Y023637D01*
X000966Y023674D01*
X001003Y023708D01*
X001043Y023738D01*
X001085Y023765D01*
X001129Y023789D01*
X001175Y023810D01*
X001222Y023826D01*
X001270Y023839D01*
X001320Y023848D01*
X001369Y023853D01*
X001420Y023854D01*
X001470Y023851D01*
X001519Y023844D01*
X001568Y023833D01*
X001616Y023818D01*
X001662Y023800D01*
X001707Y023778D01*
X001750Y023752D01*
X001791Y023723D01*
X001830Y023691D01*
X001866Y023656D01*
X001898Y023618D01*
X001928Y023578D01*
X001955Y023535D01*
X001978Y023491D01*
X001997Y023445D01*
X002013Y023397D01*
X002025Y023348D01*
X002033Y023299D01*
X002037Y023249D01*
X002037Y023199D01*
X002033Y023149D01*
X002025Y023100D01*
X002013Y023051D01*
X001997Y023003D01*
X001978Y022957D01*
X001955Y022913D01*
X001928Y022870D01*
X001898Y022830D01*
X001866Y022792D01*
X001830Y022757D01*
X001791Y022725D01*
X001750Y022696D01*
X001707Y022670D01*
X001662Y022648D01*
X001616Y022630D01*
X001568Y022615D01*
X001519Y022604D01*
X001470Y022597D01*
X001420Y022594D01*
X001369Y022595D01*
X001320Y022600D01*
X001270Y022609D01*
X001222Y022622D01*
X001175Y022638D01*
X001129Y022659D01*
X001085Y022683D01*
X001043Y022710D01*
X001003Y022740D01*
X000966Y022774D01*
X000932Y022811D01*
X000900Y022850D01*
X000872Y022891D01*
X000847Y022935D01*
X000826Y022980D01*
X000809Y023027D01*
X000795Y023075D01*
X000785Y023124D01*
X000779Y023174D01*
X000777Y023224D01*
X020941Y023224D02*
X020943Y023274D01*
X020949Y023324D01*
X020959Y023373D01*
X020973Y023421D01*
X020990Y023468D01*
X021011Y023513D01*
X021036Y023557D01*
X021064Y023598D01*
X021096Y023637D01*
X021130Y023674D01*
X021167Y023708D01*
X021207Y023738D01*
X021249Y023765D01*
X021293Y023789D01*
X021339Y023810D01*
X021386Y023826D01*
X021434Y023839D01*
X021484Y023848D01*
X021533Y023853D01*
X021584Y023854D01*
X021634Y023851D01*
X021683Y023844D01*
X021732Y023833D01*
X021780Y023818D01*
X021826Y023800D01*
X021871Y023778D01*
X021914Y023752D01*
X021955Y023723D01*
X021994Y023691D01*
X022030Y023656D01*
X022062Y023618D01*
X022092Y023578D01*
X022119Y023535D01*
X022142Y023491D01*
X022161Y023445D01*
X022177Y023397D01*
X022189Y023348D01*
X022197Y023299D01*
X022201Y023249D01*
X022201Y023199D01*
X022197Y023149D01*
X022189Y023100D01*
X022177Y023051D01*
X022161Y023003D01*
X022142Y022957D01*
X022119Y022913D01*
X022092Y022870D01*
X022062Y022830D01*
X022030Y022792D01*
X021994Y022757D01*
X021955Y022725D01*
X021914Y022696D01*
X021871Y022670D01*
X021826Y022648D01*
X021780Y022630D01*
X021732Y022615D01*
X021683Y022604D01*
X021634Y022597D01*
X021584Y022594D01*
X021533Y022595D01*
X021484Y022600D01*
X021434Y022609D01*
X021386Y022622D01*
X021339Y022638D01*
X021293Y022659D01*
X021249Y022683D01*
X021207Y022710D01*
X021167Y022740D01*
X021130Y022774D01*
X021096Y022811D01*
X021064Y022850D01*
X021036Y022891D01*
X021011Y022935D01*
X020990Y022980D01*
X020973Y023027D01*
X020959Y023075D01*
X020949Y023124D01*
X020943Y023174D01*
X020941Y023224D01*
D12*
X019842Y016881D03*
D13*
X020842Y016881D03*
X020842Y015881D03*
X019842Y015881D03*
X019842Y014881D03*
X020842Y014881D03*
X020842Y013881D03*
X019842Y013881D03*
X019842Y012881D03*
X020842Y012881D03*
X020842Y011881D03*
X019842Y011881D03*
X019842Y010881D03*
X020842Y010881D03*
X020842Y009881D03*
X019842Y009881D03*
X019842Y008881D03*
X020842Y008881D03*
X020842Y007881D03*
X019842Y007881D03*
D14*
X005493Y007366D03*
X005493Y009266D03*
D15*
X002332Y007861D02*
X001732Y007861D01*
X001732Y006861D02*
X002332Y006861D01*
X002218Y009331D02*
X001618Y009331D01*
X001618Y010331D02*
X002218Y010331D01*
X002218Y011331D02*
X001618Y011331D01*
X001618Y012331D02*
X002218Y012331D01*
X002218Y013331D02*
X001618Y013331D01*
X001618Y014331D02*
X002218Y014331D01*
X002907Y016734D02*
X003507Y016734D01*
X003507Y017734D02*
X002907Y017734D01*
X005347Y015073D02*
X005347Y014473D01*
X006347Y014473D02*
X006347Y015073D01*
X007347Y015073D02*
X007347Y014473D01*
X008347Y014473D02*
X008347Y015073D01*
X009347Y015073D02*
X009347Y014473D01*
X010347Y014473D02*
X010347Y015073D01*
X011347Y015073D02*
X011347Y014473D01*
X012347Y014473D02*
X012347Y015073D01*
X015643Y014884D02*
X016243Y014884D01*
X016243Y015884D02*
X015643Y015884D01*
X015643Y016884D02*
X016243Y016884D01*
X016243Y013884D02*
X015643Y013884D01*
X015643Y012884D02*
X016243Y012884D01*
X016243Y011884D02*
X015643Y011884D01*
X015643Y010884D02*
X016243Y010884D01*
X016243Y009884D02*
X015643Y009884D01*
X015760Y007817D02*
X016360Y007817D01*
X016360Y006817D02*
X015760Y006817D01*
X015760Y005817D02*
X016360Y005817D01*
X016360Y004817D02*
X015760Y004817D01*
X015704Y003664D02*
X015704Y003064D01*
X016704Y003064D02*
X016704Y003664D01*
X017704Y003664D02*
X017704Y003064D01*
X018704Y003064D02*
X018704Y003664D01*
X019704Y003664D02*
X019704Y003064D01*
X020704Y003064D02*
X020704Y003664D01*
X014704Y003664D02*
X014704Y003064D01*
X013704Y003064D02*
X013704Y003664D01*
X012704Y003664D02*
X012704Y003064D01*
X009709Y002513D02*
X009709Y001913D01*
X008709Y001913D02*
X008709Y002513D01*
X007709Y002513D02*
X007709Y001913D01*
X006709Y001913D02*
X006709Y002513D01*
X006619Y003689D02*
X006619Y004289D01*
X005619Y004289D02*
X005619Y003689D01*
X004619Y003689D02*
X004619Y004289D01*
X003619Y004289D02*
X003619Y003689D01*
X002619Y003689D02*
X002619Y004289D01*
X007619Y004289D02*
X007619Y003689D01*
X008619Y003689D02*
X008619Y004289D01*
X009619Y004289D02*
X009619Y003689D01*
X016644Y020892D02*
X017244Y020892D01*
X017244Y021892D02*
X016644Y021892D01*
D16*
X010641Y020377D03*
X009972Y020377D03*
X003106Y012168D03*
X003106Y011498D03*
D17*
X006123Y018678D02*
X006983Y018678D01*
X007734Y020138D02*
X007734Y020998D01*
X005372Y020998D02*
X005372Y020138D01*
D18*
X009970Y019471D02*
X010364Y019865D01*
X011112Y019865D01*
X003017Y011323D02*
X003120Y011220D01*
X003120Y010946D01*
X002734Y011331D01*
X001918Y011331D01*
X003120Y011220D02*
X003120Y011220D01*
X003120Y010946D02*
X003120Y008155D01*
X002842Y007877D01*
X002048Y007877D01*
X002032Y007861D01*
X012717Y006312D02*
X012717Y003376D01*
X016727Y003387D02*
X016727Y004288D01*
X017089Y004650D01*
X017089Y005375D01*
X017700Y003367D02*
X017700Y007584D01*
X017969Y007853D01*
D19*
X020842Y007881D02*
X020842Y008881D01*
X020842Y009881D01*
X020842Y010881D01*
X020842Y011881D01*
X020842Y012881D01*
X020842Y013881D01*
X020842Y014881D01*
X020842Y015881D01*
X020842Y016881D01*
X020827Y016896D02*
X020827Y018959D01*
X017895Y021892D01*
X017202Y021892D01*
X017186Y021908D01*
X016960Y021908D01*
D20*
X016964Y021912D02*
X016924Y021912D01*
X016924Y022372D01*
X016606Y022372D01*
X016532Y022360D01*
X016460Y022336D01*
X016392Y022302D01*
X016331Y022258D01*
X016278Y022204D01*
X016234Y022143D01*
X016199Y022076D01*
X016176Y022004D01*
X016164Y021929D01*
X016164Y021912D01*
X016924Y021912D01*
X016924Y021872D01*
X016164Y021872D01*
X016164Y021854D01*
X016176Y021779D01*
X016199Y021707D01*
X016234Y021640D01*
X016278Y021579D01*
X016331Y021525D01*
X016392Y021481D01*
X016405Y021475D01*
X016287Y021426D01*
X016233Y021372D01*
X015961Y021372D01*
X008402Y021372D01*
X008379Y021428D02*
X008165Y021642D01*
X007886Y021758D01*
X007583Y021758D01*
X007304Y021642D01*
X007090Y021428D01*
X006974Y021149D01*
X006974Y019986D01*
X007090Y019707D01*
X007304Y019493D01*
X007583Y019378D01*
X007886Y019378D01*
X008165Y019493D01*
X008379Y019707D01*
X008494Y019986D01*
X008494Y021149D01*
X008379Y021428D01*
X008277Y021530D02*
X016327Y021530D01*
X016209Y021689D02*
X008052Y021689D01*
X008468Y021213D02*
X009314Y021213D01*
X009385Y021284D02*
X009076Y020975D01*
X009076Y020537D01*
X009385Y020228D01*
X009439Y020228D01*
X009445Y020222D01*
X009445Y020095D01*
X009495Y019973D01*
X009588Y019881D01*
X009709Y019830D01*
X010234Y019830D01*
X010306Y019860D01*
X010378Y019830D01*
X010697Y019830D01*
X010629Y019762D01*
X010624Y019760D01*
X010475Y019611D01*
X010473Y019607D01*
X010397Y019530D01*
X010397Y019421D01*
X010395Y019417D01*
X010395Y019206D01*
X010397Y019201D01*
X010397Y019092D01*
X010473Y019016D01*
X010475Y019011D01*
X010624Y018862D01*
X010629Y018860D01*
X010706Y018783D01*
X010815Y018783D01*
X010819Y018781D01*
X014945Y018781D01*
X015172Y018554D01*
X015176Y018552D01*
X015253Y018475D01*
X015362Y018475D01*
X015366Y018474D01*
X015577Y018474D01*
X015582Y018475D01*
X015691Y018475D01*
X015767Y018552D01*
X015772Y018554D01*
X015921Y018703D01*
X015923Y018708D01*
X016000Y018785D01*
X016000Y018894D01*
X016002Y018898D01*
X016002Y019109D01*
X016000Y019113D01*
X016000Y019222D01*
X015923Y019299D01*
X015921Y019304D01*
X015464Y019760D01*
X015270Y019841D01*
X015059Y019841D01*
X010929Y019841D01*
X011025Y019881D01*
X011031Y019887D01*
X015456Y019887D01*
X015651Y019887D01*
X015831Y019962D01*
X016257Y020387D01*
X016287Y020358D01*
X016519Y020262D01*
X017369Y020262D01*
X017601Y020358D01*
X017778Y020535D01*
X017874Y020766D01*
X017874Y021017D01*
X017778Y021248D01*
X017601Y021426D01*
X017483Y021475D01*
X017496Y021481D01*
X017557Y021525D01*
X017610Y021579D01*
X017655Y021640D01*
X017689Y021707D01*
X017712Y021779D01*
X017724Y021854D01*
X017724Y021872D01*
X016964Y021872D01*
X016964Y021912D01*
X016964Y022372D01*
X017282Y022372D01*
X017356Y022360D01*
X017428Y022336D01*
X017496Y022302D01*
X017557Y022258D01*
X017610Y022204D01*
X017655Y022143D01*
X017689Y022076D01*
X017712Y022004D01*
X017724Y021929D01*
X017724Y021912D01*
X016964Y021912D01*
X016964Y022006D02*
X016924Y022006D01*
X016924Y022164D02*
X016964Y022164D01*
X016964Y022323D02*
X016924Y022323D01*
X016433Y022323D02*
X001866Y022323D01*
X001796Y022283D02*
X002027Y022416D01*
X002215Y022604D01*
X002348Y022834D01*
X002417Y023091D01*
X002417Y023357D01*
X002348Y023613D01*
X002237Y023805D01*
X020740Y023805D01*
X020630Y023613D01*
X020561Y023357D01*
X020561Y023091D01*
X020630Y022834D01*
X020763Y022604D01*
X020951Y022416D01*
X021181Y022283D01*
X021438Y022214D01*
X021704Y022214D01*
X021961Y022283D01*
X022191Y022416D01*
X022218Y022443D01*
X022218Y002121D01*
X022070Y002207D01*
X021813Y002276D01*
X021547Y002276D01*
X021290Y002207D01*
X021060Y002074D01*
X020872Y001886D01*
X020739Y001656D01*
X020670Y001399D01*
X020670Y001133D01*
X020739Y000876D01*
X020782Y000802D01*
X011337Y000802D01*
X011342Y000804D01*
X012413Y001875D01*
X020455Y001875D01*
X020618Y001875D01*
X020769Y001937D01*
X020972Y002140D01*
X021087Y002256D01*
X021150Y002406D01*
X021150Y002618D01*
X021238Y002707D01*
X021334Y002938D01*
X021334Y003789D01*
X021238Y004020D01*
X021061Y004198D01*
X020829Y004294D01*
X020579Y004294D01*
X020347Y004198D01*
X020204Y004054D01*
X020061Y004198D01*
X019829Y004294D01*
X019579Y004294D01*
X019347Y004198D01*
X019204Y004054D01*
X019061Y004198D01*
X018829Y004294D01*
X018579Y004294D01*
X018347Y004198D01*
X018170Y004020D01*
X018121Y003902D01*
X018115Y003915D01*
X018070Y003976D01*
X018017Y004030D01*
X017956Y004074D01*
X017888Y004108D01*
X017816Y004132D01*
X017742Y004144D01*
X017724Y004144D01*
X017724Y003384D01*
X017684Y003384D01*
X017684Y004144D01*
X017666Y004144D01*
X017592Y004132D01*
X017520Y004108D01*
X017452Y004074D01*
X017391Y004030D01*
X017338Y003976D01*
X017293Y003915D01*
X017287Y003902D01*
X017238Y004020D01*
X017177Y004081D01*
X017177Y004102D01*
X017471Y004395D01*
X017539Y004561D01*
X017539Y004740D01*
X017539Y005133D01*
X017598Y005274D01*
X017598Y005476D01*
X017520Y005663D01*
X017377Y005806D01*
X017190Y005883D01*
X016990Y005883D01*
X016990Y005943D01*
X016894Y006174D01*
X016751Y006317D01*
X016894Y006460D01*
X016990Y006692D01*
X016990Y006943D01*
X016894Y007174D01*
X016751Y007317D01*
X016894Y007460D01*
X016990Y007692D01*
X016990Y007943D01*
X016894Y008174D01*
X016717Y008351D01*
X016486Y008447D01*
X015635Y008447D01*
X015404Y008351D01*
X015226Y008174D01*
X015130Y007943D01*
X015130Y007692D01*
X015226Y007460D01*
X015369Y007317D01*
X015226Y007174D01*
X015130Y006943D01*
X015130Y006692D01*
X015226Y006460D01*
X015369Y006317D01*
X015226Y006174D01*
X015130Y005943D01*
X015130Y005692D01*
X015226Y005460D01*
X015369Y005317D01*
X015226Y005174D01*
X015130Y004943D01*
X015130Y004692D01*
X015226Y004460D01*
X015294Y004393D01*
X015294Y004379D01*
X015294Y004144D01*
X015204Y004054D01*
X015061Y004198D01*
X014829Y004294D01*
X014579Y004294D01*
X014347Y004198D01*
X014204Y004054D01*
X014061Y004198D01*
X013829Y004294D01*
X013579Y004294D01*
X013347Y004198D01*
X013204Y004054D01*
X013167Y004092D01*
X013167Y006070D01*
X013225Y006211D01*
X013225Y006413D01*
X013148Y006600D01*
X013005Y006743D01*
X012818Y006821D01*
X012616Y006821D01*
X012429Y006743D01*
X012286Y006600D01*
X012209Y006413D01*
X012209Y006211D01*
X012267Y006070D01*
X012267Y005578D01*
X012124Y005721D01*
X011687Y005721D01*
X011377Y005411D01*
X011377Y004974D01*
X011495Y004856D01*
X011495Y002704D01*
X011495Y002541D01*
X011558Y002391D01*
X011663Y002285D01*
X010940Y001562D01*
X010246Y001562D01*
X010339Y001787D01*
X010339Y002638D01*
X010243Y002869D01*
X010066Y003047D01*
X009890Y003119D01*
X009975Y003155D01*
X010153Y003332D01*
X010248Y003564D01*
X010248Y004414D01*
X010153Y004646D01*
X009975Y004823D01*
X009744Y004919D01*
X009493Y004919D01*
X009262Y004823D01*
X009119Y004680D01*
X008975Y004823D01*
X008744Y004919D01*
X008493Y004919D01*
X008262Y004823D01*
X008119Y004680D01*
X007975Y004823D01*
X007744Y004919D01*
X007493Y004919D01*
X007262Y004823D01*
X007119Y004680D01*
X006975Y004823D01*
X006744Y004919D01*
X006493Y004919D01*
X006262Y004823D01*
X006119Y004680D01*
X005975Y004823D01*
X005744Y004919D01*
X005493Y004919D01*
X005262Y004823D01*
X005119Y004680D01*
X004975Y004823D01*
X004744Y004919D01*
X004493Y004919D01*
X004262Y004823D01*
X004119Y004680D01*
X003975Y004823D01*
X003744Y004919D01*
X003493Y004919D01*
X003262Y004823D01*
X003119Y004680D01*
X002975Y004823D01*
X002744Y004919D01*
X002493Y004919D01*
X002262Y004823D01*
X002084Y004646D01*
X001989Y004414D01*
X001989Y003564D01*
X002084Y003332D01*
X002262Y003155D01*
X002493Y003059D01*
X002744Y003059D01*
X002975Y003155D01*
X003119Y003298D01*
X003118Y003298D01*
X003119Y003298D02*
X003262Y003155D01*
X003493Y003059D01*
X003744Y003059D01*
X003975Y003155D01*
X004119Y003298D01*
X004118Y003298D01*
X004119Y003298D02*
X004262Y003155D01*
X004493Y003059D01*
X004744Y003059D01*
X004975Y003155D01*
X005119Y003298D01*
X005118Y003298D01*
X005119Y003298D02*
X005262Y003155D01*
X005493Y003059D01*
X005744Y003059D01*
X005975Y003155D01*
X006119Y003298D01*
X006118Y003298D01*
X006119Y003298D02*
X006262Y003155D01*
X006438Y003082D01*
X006352Y003047D01*
X006175Y002869D01*
X006079Y002638D01*
X006079Y001787D01*
X006175Y001556D01*
X006352Y001379D01*
X006584Y001283D01*
X006834Y001283D01*
X007066Y001379D01*
X007209Y001522D01*
X007352Y001379D01*
X007584Y001283D01*
X007834Y001283D01*
X008066Y001379D01*
X008209Y001522D01*
X008352Y001379D01*
X008584Y001283D01*
X008701Y001283D01*
X009064Y000920D01*
X002326Y000920D01*
X002300Y000819D02*
X002368Y001076D01*
X002368Y001342D01*
X002300Y001599D01*
X002167Y001829D01*
X001979Y002017D01*
X001748Y002150D01*
X001491Y002219D01*
X001226Y002219D01*
X000969Y002150D01*
X000802Y002054D01*
X000802Y005500D01*
X001309Y006007D01*
X006230Y006007D01*
X006663Y006440D01*
X006663Y010377D01*
X006151Y010889D01*
X003570Y010889D01*
X003570Y011083D01*
X003582Y011095D01*
X003633Y011216D01*
X003633Y011781D01*
X003582Y011902D01*
X003490Y011995D01*
X003483Y011998D01*
X003483Y012149D01*
X003124Y012149D01*
X003124Y012186D01*
X003087Y012186D01*
X003087Y012564D01*
X002885Y012564D01*
X002839Y012552D01*
X002815Y012538D01*
X002753Y012688D01*
X002609Y012831D01*
X002753Y012975D01*
X002848Y013206D01*
X002848Y013457D01*
X002753Y013688D01*
X002609Y013831D01*
X002753Y013975D01*
X002848Y014206D01*
X002848Y014457D01*
X002753Y014688D01*
X002575Y014866D01*
X002344Y014961D01*
X001493Y014961D01*
X001262Y014866D01*
X001084Y014688D01*
X000988Y014457D01*
X000988Y014206D01*
X001084Y013975D01*
X001228Y013831D01*
X001084Y013688D01*
X000988Y013457D01*
X000988Y013206D01*
X001084Y012975D01*
X001228Y012831D01*
X001084Y012688D01*
X000988Y012457D01*
X000988Y012206D01*
X001084Y011975D01*
X001228Y011831D01*
X001084Y011688D01*
X000988Y011457D01*
X000988Y011209D01*
X000802Y011396D01*
X000802Y022407D01*
X001017Y022283D01*
X001274Y022214D01*
X001540Y022214D01*
X001796Y022283D01*
X002093Y022481D02*
X020885Y022481D01*
X020742Y022640D02*
X002236Y022640D01*
X002327Y022799D02*
X020650Y022799D01*
X020597Y022957D02*
X002381Y022957D01*
X002417Y023116D02*
X020561Y023116D01*
X020561Y023274D02*
X002417Y023274D01*
X002396Y023433D02*
X020581Y023433D01*
X020624Y023591D02*
X002354Y023591D01*
X002269Y023750D02*
X020709Y023750D01*
X021111Y022323D02*
X017455Y022323D01*
X017639Y022164D02*
X022218Y022164D01*
X022218Y022006D02*
X017712Y022006D01*
X017723Y021847D02*
X022218Y021847D01*
X022218Y021689D02*
X017679Y021689D01*
X017561Y021530D02*
X022218Y021530D01*
X022218Y021372D02*
X017655Y021372D01*
X017793Y021213D02*
X022218Y021213D01*
X022218Y021055D02*
X017858Y021055D01*
X017874Y020896D02*
X022218Y020896D01*
X022218Y020737D02*
X017862Y020737D01*
X017796Y020579D02*
X022218Y020579D01*
X022218Y020420D02*
X017664Y020420D01*
X017370Y020262D02*
X022218Y020262D01*
X022218Y020103D02*
X015973Y020103D01*
X016132Y020262D02*
X016518Y020262D01*
X015791Y019945D02*
X022218Y019945D01*
X022218Y019786D02*
X015402Y019786D01*
X015597Y019628D02*
X022218Y019628D01*
X022218Y019469D02*
X015756Y019469D01*
X015914Y019311D02*
X022218Y019311D01*
X022218Y019152D02*
X016000Y019152D01*
X016002Y018994D02*
X022218Y018994D01*
X022218Y018835D02*
X016000Y018835D01*
X015894Y018676D02*
X022218Y018676D01*
X022218Y018518D02*
X015733Y018518D01*
X015211Y018518D02*
X007573Y018518D01*
X007578Y018535D02*
X007593Y018630D01*
X007593Y018678D01*
X007593Y018726D01*
X007578Y018821D01*
X007549Y018912D01*
X007505Y018998D01*
X007449Y019075D01*
X007381Y019143D01*
X007303Y019200D01*
X007217Y019243D01*
X007126Y019273D01*
X007031Y019288D01*
X006554Y019288D01*
X006554Y018678D01*
X007593Y018678D01*
X006554Y018678D01*
X006554Y018678D01*
X006553Y018678D01*
X006553Y018678D01*
X005513Y018678D01*
X005513Y018726D01*
X005528Y018821D01*
X005558Y018912D01*
X005602Y018998D01*
X005658Y019075D01*
X005726Y019143D01*
X005804Y019200D01*
X005889Y019243D01*
X005980Y019273D01*
X006075Y019288D01*
X006553Y019288D01*
X006553Y018678D01*
X005513Y018678D01*
X005513Y018630D01*
X005528Y018535D01*
X005558Y018444D01*
X005602Y018358D01*
X005658Y018281D01*
X005726Y018213D01*
X005804Y018156D01*
X005889Y018113D01*
X005980Y018083D01*
X006075Y018068D01*
X006553Y018068D01*
X006553Y018677D01*
X006554Y018677D01*
X006554Y018068D01*
X007031Y018068D01*
X007126Y018083D01*
X007217Y018113D01*
X007303Y018156D01*
X007381Y018213D01*
X007449Y018281D01*
X007505Y018358D01*
X007549Y018444D01*
X007578Y018535D01*
X007593Y018676D02*
X015049Y018676D01*
X015518Y017514D02*
X015286Y017418D01*
X015109Y017241D01*
X015013Y017009D01*
X015013Y016758D01*
X015109Y016527D01*
X015252Y016384D01*
X015109Y016241D01*
X015013Y016009D01*
X015013Y015758D01*
X015109Y015527D01*
X015252Y015384D01*
X015109Y015241D01*
X015013Y015009D01*
X015013Y014758D01*
X015109Y014527D01*
X015252Y014384D01*
X015109Y014241D01*
X015013Y014009D01*
X015013Y013808D01*
X013261Y013808D01*
X012901Y014167D01*
X012976Y014348D01*
X012976Y015199D01*
X012881Y015430D01*
X012703Y015608D01*
X012472Y015703D01*
X012221Y015703D01*
X011990Y015608D01*
X011846Y015464D01*
X011703Y015608D01*
X011472Y015703D01*
X011221Y015703D01*
X010990Y015608D01*
X010846Y015464D01*
X010703Y015608D01*
X010472Y015703D01*
X010221Y015703D01*
X009990Y015608D01*
X009846Y015464D01*
X009703Y015608D01*
X009472Y015703D01*
X009221Y015703D01*
X008990Y015608D01*
X008846Y015464D01*
X008703Y015608D01*
X008472Y015703D01*
X008221Y015703D01*
X007990Y015608D01*
X007846Y015464D01*
X007703Y015608D01*
X007472Y015703D01*
X007221Y015703D01*
X006990Y015608D01*
X006846Y015464D01*
X006703Y015608D01*
X006472Y015703D01*
X006221Y015703D01*
X005990Y015608D01*
X005846Y015464D01*
X005703Y015608D01*
X005472Y015703D01*
X005221Y015703D01*
X004990Y015608D01*
X004812Y015430D01*
X004717Y015199D01*
X004717Y014348D01*
X004812Y014117D01*
X004990Y013939D01*
X005221Y013843D01*
X005472Y013843D01*
X005703Y013939D01*
X005846Y014083D01*
X005990Y013939D01*
X006221Y013843D01*
X006472Y013843D01*
X006703Y013939D01*
X006846Y014083D01*
X006990Y013939D01*
X007221Y013843D01*
X007472Y013843D01*
X007703Y013939D01*
X007846Y014083D01*
X007990Y013939D01*
X008221Y013843D01*
X008472Y013843D01*
X008703Y013939D01*
X008846Y014083D01*
X008990Y013939D01*
X009221Y013843D01*
X009472Y013843D01*
X009703Y013939D01*
X009846Y014083D01*
X009990Y013939D01*
X010221Y013843D01*
X010472Y013843D01*
X010703Y013939D01*
X010846Y014083D01*
X010860Y014069D01*
X010860Y013189D01*
X010922Y013039D01*
X011038Y012923D01*
X011942Y012018D01*
X012093Y011956D01*
X012256Y011956D01*
X015013Y011956D01*
X015013Y011758D01*
X015109Y011527D01*
X015252Y011384D01*
X015109Y011241D01*
X015013Y011009D01*
X015013Y010758D01*
X015109Y010527D01*
X015252Y010384D01*
X015109Y010241D01*
X015013Y010009D01*
X015013Y009758D01*
X015109Y009527D01*
X015286Y009350D01*
X015518Y009254D01*
X016369Y009254D01*
X016600Y009350D01*
X016777Y009527D01*
X016873Y009758D01*
X016873Y010009D01*
X016777Y010241D01*
X016634Y010384D01*
X016777Y010527D01*
X016873Y010758D01*
X016873Y011009D01*
X016777Y011241D01*
X016634Y011384D01*
X016777Y011527D01*
X016873Y011758D01*
X016873Y011956D01*
X017104Y011956D01*
X017384Y011677D01*
X017384Y009185D01*
X017446Y009035D01*
X017562Y008919D01*
X018948Y007533D01*
X019098Y007471D01*
X019262Y007471D01*
X019389Y007471D01*
X019589Y007271D01*
X020095Y007271D01*
X020448Y007624D01*
X020651Y007421D01*
X020832Y007421D01*
X020832Y007871D01*
X020852Y007871D01*
X020852Y007891D01*
X020832Y007891D01*
X020832Y008341D01*
X020651Y008341D01*
X020448Y008137D01*
X020205Y008381D01*
X020448Y008624D01*
X020651Y008421D01*
X020832Y008421D01*
X020832Y008871D01*
X020852Y008871D01*
X020852Y008891D01*
X020832Y008891D01*
X020832Y009341D01*
X020651Y009341D01*
X020448Y009137D01*
X020205Y009381D01*
X020448Y009624D01*
X020651Y009421D01*
X020832Y009421D01*
X020832Y009871D01*
X020852Y009871D01*
X020852Y009891D01*
X020832Y009891D01*
X020832Y010341D01*
X020651Y010341D01*
X020448Y010137D01*
X020205Y010381D01*
X020448Y010624D01*
X020651Y010421D01*
X020832Y010421D01*
X020832Y010871D01*
X020852Y010871D01*
X020852Y010891D01*
X020832Y010891D01*
X020832Y011341D01*
X020651Y011341D01*
X020448Y011137D01*
X020205Y011381D01*
X020448Y011624D01*
X020651Y011421D01*
X020832Y011421D01*
X020832Y011871D01*
X020852Y011871D01*
X020852Y011891D01*
X020832Y011891D01*
X020832Y012341D01*
X020651Y012341D01*
X020448Y012137D01*
X020205Y012381D01*
X020448Y012624D01*
X020651Y012421D01*
X020832Y012421D01*
X020832Y012871D01*
X020852Y012871D01*
X020852Y012891D01*
X020832Y012891D01*
X020832Y013341D01*
X020651Y013341D01*
X020448Y013137D01*
X020205Y013381D01*
X020448Y013624D01*
X020651Y013421D01*
X020832Y013421D01*
X020832Y013871D01*
X020852Y013871D01*
X020852Y013891D01*
X020832Y013891D01*
X020832Y014341D01*
X020651Y014341D01*
X020448Y014137D01*
X020205Y014381D01*
X020448Y014624D01*
X020651Y014421D01*
X020832Y014421D01*
X020832Y014871D01*
X020852Y014871D01*
X020852Y014891D01*
X020832Y014891D01*
X020832Y015341D01*
X020651Y015341D01*
X020448Y015137D01*
X020205Y015381D01*
X020448Y015624D01*
X020651Y015421D01*
X020832Y015421D01*
X020832Y015871D01*
X020852Y015871D01*
X020852Y015891D01*
X020832Y015891D01*
X020832Y016341D01*
X020651Y016341D01*
X020448Y016137D01*
X020205Y016381D01*
X020359Y016535D01*
X020411Y016661D01*
X020651Y016421D01*
X020832Y016421D01*
X020832Y016871D01*
X020852Y016871D01*
X020852Y016891D01*
X020832Y016891D01*
X020832Y017341D01*
X020651Y017341D01*
X020411Y017101D01*
X020359Y017226D01*
X020188Y017398D01*
X019963Y017491D01*
X019721Y017491D01*
X019496Y017398D01*
X019325Y017226D01*
X019232Y017002D01*
X019232Y016759D01*
X019325Y016535D01*
X019479Y016381D01*
X019232Y016133D01*
X019232Y015628D01*
X019479Y015381D01*
X019232Y015133D01*
X019232Y014628D01*
X019479Y014381D01*
X019232Y014133D01*
X019232Y013628D01*
X019479Y013381D01*
X019232Y013133D01*
X019232Y012628D01*
X019479Y012381D01*
X019232Y012133D01*
X019232Y011628D01*
X019479Y011381D01*
X019232Y011133D01*
X019232Y010628D01*
X019479Y010381D01*
X019232Y010133D01*
X019232Y009727D01*
X019077Y009881D01*
X019077Y011922D01*
X019015Y012073D01*
X018899Y012188D01*
X017342Y013746D01*
X017191Y013808D01*
X017028Y013808D01*
X016873Y013808D01*
X016873Y014009D01*
X016777Y014241D01*
X016634Y014384D01*
X016777Y014527D01*
X016873Y014758D01*
X016873Y015009D01*
X016777Y015241D01*
X016634Y015384D01*
X016777Y015527D01*
X016873Y015758D01*
X016873Y016009D01*
X016777Y016241D01*
X016634Y016384D01*
X016777Y016527D01*
X016873Y016758D01*
X016873Y017009D01*
X016777Y017241D01*
X016600Y017418D01*
X016369Y017514D01*
X015518Y017514D01*
X015277Y017408D02*
X004055Y017408D01*
X004042Y017377D02*
X004137Y017608D01*
X004137Y017859D01*
X004042Y018090D01*
X003864Y018268D01*
X003633Y018363D01*
X002782Y018363D01*
X002551Y018268D01*
X002373Y018090D01*
X002277Y017859D01*
X002277Y017608D01*
X002373Y017377D01*
X002517Y017234D01*
X002373Y017090D01*
X002277Y016859D01*
X002277Y016608D01*
X002373Y016377D01*
X002551Y016199D01*
X002782Y016104D01*
X003633Y016104D01*
X003864Y016199D01*
X004042Y016377D01*
X004137Y016608D01*
X004137Y016859D01*
X004042Y017090D01*
X003898Y017234D01*
X004042Y017377D01*
X003914Y017250D02*
X015118Y017250D01*
X015047Y017091D02*
X004041Y017091D01*
X004107Y016932D02*
X015013Y016932D01*
X015013Y016774D02*
X004137Y016774D01*
X004137Y016615D02*
X015072Y016615D01*
X015179Y016457D02*
X004075Y016457D01*
X003963Y016298D02*
X015167Y016298D01*
X015067Y016140D02*
X003720Y016140D01*
X004778Y015347D02*
X000802Y015347D01*
X000802Y015188D02*
X004717Y015188D01*
X004717Y015030D02*
X000802Y015030D01*
X000802Y014871D02*
X001276Y014871D01*
X001109Y014713D02*
X000802Y014713D01*
X000802Y014554D02*
X001029Y014554D01*
X000988Y014396D02*
X000802Y014396D01*
X000802Y014237D02*
X000988Y014237D01*
X001041Y014079D02*
X000802Y014079D01*
X000802Y013920D02*
X001139Y013920D01*
X001158Y013762D02*
X000802Y013762D01*
X000802Y013603D02*
X001049Y013603D01*
X000988Y013444D02*
X000802Y013444D01*
X000802Y013286D02*
X000988Y013286D01*
X001021Y013127D02*
X000802Y013127D01*
X000802Y012969D02*
X001090Y012969D01*
X001206Y012810D02*
X000802Y012810D01*
X000802Y012652D02*
X001069Y012652D01*
X001004Y012493D02*
X000802Y012493D01*
X000802Y012335D02*
X000988Y012335D01*
X001001Y012176D02*
X000802Y012176D01*
X000802Y012018D02*
X001067Y012018D01*
X001200Y011859D02*
X000802Y011859D01*
X000802Y011701D02*
X001097Y011701D01*
X001024Y011542D02*
X000802Y011542D01*
X000814Y011383D02*
X000988Y011383D01*
X000973Y011225D02*
X000988Y011225D01*
X002631Y012810D02*
X011150Y012810D01*
X011038Y012923D02*
X011038Y012923D01*
X010992Y012969D02*
X002747Y012969D01*
X002816Y013127D02*
X010885Y013127D01*
X010860Y013286D02*
X002848Y013286D01*
X002848Y013444D02*
X010860Y013444D01*
X010860Y013603D02*
X002788Y013603D01*
X002679Y013762D02*
X010860Y013762D01*
X010860Y013920D02*
X010657Y013920D01*
X010843Y014079D02*
X010850Y014079D01*
X011270Y014697D02*
X011347Y014773D01*
X011270Y014697D02*
X011270Y013271D01*
X012175Y012366D01*
X017274Y012366D01*
X017794Y011846D01*
X017794Y009267D01*
X019180Y007881D01*
X019842Y007881D01*
X020244Y007420D02*
X022218Y007420D01*
X022218Y007578D02*
X021190Y007578D01*
X021302Y007690D02*
X021302Y007871D01*
X020852Y007871D01*
X020852Y007421D01*
X021033Y007421D01*
X021302Y007690D01*
X021302Y007737D02*
X022218Y007737D01*
X022218Y007895D02*
X021302Y007895D01*
X021302Y007891D02*
X021302Y008071D01*
X021033Y008341D01*
X020852Y008341D01*
X020852Y007891D01*
X021302Y007891D01*
X021302Y008054D02*
X022218Y008054D01*
X022218Y008213D02*
X021161Y008213D01*
X021033Y008421D02*
X020852Y008421D01*
X020852Y008871D01*
X021302Y008871D01*
X021302Y008690D01*
X021033Y008421D01*
X021141Y008530D02*
X022218Y008530D01*
X022218Y008688D02*
X021300Y008688D01*
X021302Y008847D02*
X022218Y008847D01*
X022218Y009005D02*
X021302Y009005D01*
X021302Y009071D02*
X021033Y009341D01*
X020852Y009341D01*
X020852Y008891D01*
X021302Y008891D01*
X021302Y009071D01*
X021209Y009164D02*
X022218Y009164D01*
X022218Y009322D02*
X021051Y009322D01*
X021033Y009421D02*
X020852Y009421D01*
X020852Y009871D01*
X021302Y009871D01*
X021302Y009690D01*
X021033Y009421D01*
X021093Y009481D02*
X022218Y009481D01*
X022218Y009639D02*
X021251Y009639D01*
X021302Y009798D02*
X022218Y009798D01*
X022218Y009957D02*
X021302Y009957D01*
X021302Y009891D02*
X021302Y010071D01*
X021033Y010341D01*
X020852Y010341D01*
X020852Y009891D01*
X021302Y009891D01*
X021258Y010115D02*
X022218Y010115D01*
X022218Y010274D02*
X021100Y010274D01*
X021033Y010421D02*
X020852Y010421D01*
X020852Y010871D01*
X021302Y010871D01*
X021302Y010690D01*
X021033Y010421D01*
X021044Y010432D02*
X022218Y010432D01*
X022218Y010591D02*
X021202Y010591D01*
X021302Y010749D02*
X022218Y010749D01*
X022218Y010908D02*
X021302Y010908D01*
X021302Y010891D02*
X021302Y011071D01*
X021033Y011341D01*
X020852Y011341D01*
X020852Y010891D01*
X021302Y010891D01*
X021302Y011066D02*
X022218Y011066D01*
X022218Y011225D02*
X021148Y011225D01*
X021033Y011421D02*
X020852Y011421D01*
X020852Y011871D01*
X021302Y011871D01*
X021302Y011690D01*
X021033Y011421D01*
X021154Y011542D02*
X022218Y011542D01*
X022218Y011701D02*
X021302Y011701D01*
X021302Y011859D02*
X022218Y011859D01*
X022218Y012018D02*
X021302Y012018D01*
X021302Y012071D02*
X021302Y011891D01*
X020852Y011891D01*
X020852Y012341D01*
X021033Y012341D01*
X021302Y012071D01*
X021197Y012176D02*
X022218Y012176D01*
X022218Y012335D02*
X021039Y012335D01*
X021033Y012421D02*
X021302Y012690D01*
X021302Y012871D01*
X020852Y012871D01*
X020852Y012421D01*
X021033Y012421D01*
X021105Y012493D02*
X022218Y012493D01*
X022218Y012652D02*
X021263Y012652D01*
X021302Y012810D02*
X022218Y012810D01*
X022218Y012969D02*
X021302Y012969D01*
X021302Y012891D02*
X021302Y013071D01*
X021033Y013341D01*
X020852Y013341D01*
X020852Y012891D01*
X021302Y012891D01*
X021246Y013127D02*
X022218Y013127D01*
X022218Y013286D02*
X021087Y013286D01*
X021033Y013421D02*
X020852Y013421D01*
X020852Y013871D01*
X021302Y013871D01*
X021302Y013690D01*
X021033Y013421D01*
X021056Y013444D02*
X022218Y013444D01*
X022218Y013603D02*
X021215Y013603D01*
X021302Y013762D02*
X022218Y013762D01*
X022218Y013920D02*
X021302Y013920D01*
X021302Y013891D02*
X021302Y014071D01*
X021033Y014341D01*
X020852Y014341D01*
X020852Y013891D01*
X021302Y013891D01*
X021295Y014079D02*
X022218Y014079D01*
X022218Y014237D02*
X021136Y014237D01*
X021033Y014421D02*
X020852Y014421D01*
X020852Y014871D01*
X021302Y014871D01*
X021302Y014690D01*
X021033Y014421D01*
X021166Y014554D02*
X022218Y014554D01*
X022218Y014396D02*
X020220Y014396D01*
X020348Y014237D02*
X020548Y014237D01*
X020832Y014237D02*
X020852Y014237D01*
X020852Y014079D02*
X020832Y014079D01*
X020832Y013920D02*
X020852Y013920D01*
X020852Y013762D02*
X020832Y013762D01*
X020832Y013603D02*
X020852Y013603D01*
X020852Y013444D02*
X020832Y013444D01*
X020832Y013286D02*
X020852Y013286D01*
X020852Y013127D02*
X020832Y013127D01*
X020832Y012969D02*
X020852Y012969D01*
X020852Y012810D02*
X020832Y012810D01*
X020832Y012652D02*
X020852Y012652D01*
X020852Y012493D02*
X020832Y012493D01*
X020832Y012335D02*
X020852Y012335D01*
X020852Y012176D02*
X020832Y012176D01*
X020832Y012018D02*
X020852Y012018D01*
X020852Y011859D02*
X020832Y011859D01*
X020832Y011701D02*
X020852Y011701D01*
X020852Y011542D02*
X020832Y011542D01*
X020530Y011542D02*
X020366Y011542D01*
X020207Y011383D02*
X022218Y011383D01*
X020852Y011225D02*
X020832Y011225D01*
X020832Y011066D02*
X020852Y011066D01*
X020852Y010908D02*
X020832Y010908D01*
X020832Y010749D02*
X020852Y010749D01*
X020852Y010591D02*
X020832Y010591D01*
X020832Y010432D02*
X020852Y010432D01*
X020852Y010274D02*
X020832Y010274D01*
X020832Y010115D02*
X020852Y010115D01*
X020852Y009957D02*
X020832Y009957D01*
X020832Y009798D02*
X020852Y009798D01*
X020852Y009639D02*
X020832Y009639D01*
X020832Y009481D02*
X020852Y009481D01*
X020852Y009322D02*
X020832Y009322D01*
X020832Y009164D02*
X020852Y009164D01*
X020852Y009005D02*
X020832Y009005D01*
X020832Y008847D02*
X020852Y008847D01*
X020852Y008688D02*
X020832Y008688D01*
X020832Y008530D02*
X020852Y008530D01*
X020543Y008530D02*
X020353Y008530D01*
X020214Y008371D02*
X022218Y008371D01*
X022218Y007261D02*
X016807Y007261D01*
X016854Y007420D02*
X019440Y007420D01*
X018903Y007578D02*
X016943Y007578D01*
X016990Y007737D02*
X018744Y007737D01*
X018586Y007895D02*
X016990Y007895D01*
X016944Y008054D02*
X018427Y008054D01*
X018268Y008213D02*
X016856Y008213D01*
X016669Y008371D02*
X018110Y008371D01*
X017951Y008530D02*
X006663Y008530D01*
X006663Y008688D02*
X017793Y008688D01*
X017634Y008847D02*
X006663Y008847D01*
X006663Y009005D02*
X017476Y009005D01*
X017393Y009164D02*
X006663Y009164D01*
X006663Y009322D02*
X015352Y009322D01*
X015155Y009481D02*
X006663Y009481D01*
X006663Y009639D02*
X015062Y009639D01*
X015013Y009798D02*
X006663Y009798D01*
X006663Y009957D02*
X015013Y009957D01*
X015057Y010115D02*
X006663Y010115D01*
X006663Y010274D02*
X015142Y010274D01*
X015204Y010432D02*
X006608Y010432D01*
X006449Y010591D02*
X015083Y010591D01*
X015017Y010749D02*
X006291Y010749D01*
X006663Y008371D02*
X015451Y008371D01*
X015265Y008213D02*
X006663Y008213D01*
X006663Y008054D02*
X015177Y008054D01*
X015130Y007895D02*
X006663Y007895D01*
X006663Y007737D02*
X015130Y007737D01*
X015177Y007578D02*
X006663Y007578D01*
X006663Y007420D02*
X015267Y007420D01*
X015314Y007261D02*
X006663Y007261D01*
X006663Y007103D02*
X015197Y007103D01*
X015131Y006944D02*
X006663Y006944D01*
X006663Y006786D02*
X012531Y006786D01*
X012313Y006627D02*
X006663Y006627D01*
X006663Y006469D02*
X012231Y006469D01*
X012209Y006310D02*
X006533Y006310D01*
X006374Y006151D02*
X012233Y006151D01*
X012267Y005993D02*
X001295Y005993D01*
X001136Y005834D02*
X012267Y005834D01*
X012267Y005676D02*
X012169Y005676D01*
X011642Y005676D02*
X000978Y005676D01*
X000819Y005517D02*
X011483Y005517D01*
X011377Y005359D02*
X000802Y005359D01*
X000802Y005200D02*
X011377Y005200D01*
X011377Y005042D02*
X000802Y005042D01*
X000802Y004883D02*
X002407Y004883D01*
X002163Y004725D02*
X000802Y004725D01*
X000802Y004566D02*
X002051Y004566D01*
X001989Y004408D02*
X000802Y004408D01*
X000802Y004249D02*
X001989Y004249D01*
X001989Y004090D02*
X000802Y004090D01*
X000802Y003932D02*
X001989Y003932D01*
X001989Y003773D02*
X000802Y003773D01*
X000802Y003615D02*
X001989Y003615D01*
X002033Y003456D02*
X000802Y003456D01*
X000802Y003298D02*
X002119Y003298D01*
X002299Y003139D02*
X000802Y003139D01*
X000802Y002981D02*
X006286Y002981D01*
X006299Y003139D02*
X005938Y003139D01*
X006155Y002822D02*
X000802Y002822D01*
X000802Y002664D02*
X006090Y002664D01*
X006079Y002505D02*
X000802Y002505D01*
X000802Y002346D02*
X006079Y002346D01*
X006079Y002188D02*
X001607Y002188D01*
X001957Y002029D02*
X006079Y002029D01*
X006079Y001871D02*
X002125Y001871D01*
X002234Y001712D02*
X006110Y001712D01*
X006177Y001554D02*
X002312Y001554D01*
X002354Y001395D02*
X006336Y001395D01*
X007083Y001395D02*
X007336Y001395D01*
X008083Y001395D02*
X008336Y001395D01*
X008747Y001237D02*
X002368Y001237D01*
X002368Y001078D02*
X008906Y001078D01*
X009064Y000920D02*
X009180Y000804D01*
X009184Y000802D01*
X002290Y000802D01*
X002300Y000819D01*
X001110Y002188D02*
X000802Y002188D01*
X002938Y003139D02*
X003299Y003139D01*
X003938Y003139D02*
X004299Y003139D01*
X004938Y003139D02*
X005299Y003139D01*
X005163Y004725D02*
X005074Y004725D01*
X004830Y004883D02*
X005407Y004883D01*
X005830Y004883D02*
X006407Y004883D01*
X006163Y004725D02*
X006074Y004725D01*
X006830Y004883D02*
X007407Y004883D01*
X007163Y004725D02*
X007074Y004725D01*
X007830Y004883D02*
X008407Y004883D01*
X008163Y004725D02*
X008074Y004725D01*
X008830Y004883D02*
X009407Y004883D01*
X009163Y004725D02*
X009074Y004725D01*
X009830Y004883D02*
X011468Y004883D01*
X011495Y004725D02*
X010074Y004725D01*
X010186Y004566D02*
X011495Y004566D01*
X011495Y004408D02*
X010248Y004408D01*
X010248Y004249D02*
X011495Y004249D01*
X011495Y004090D02*
X010248Y004090D01*
X010248Y003932D02*
X011495Y003932D01*
X011495Y003773D02*
X010248Y003773D01*
X010248Y003615D02*
X011495Y003615D01*
X011495Y003456D02*
X010204Y003456D01*
X010118Y003298D02*
X011495Y003298D01*
X011495Y003139D02*
X009938Y003139D01*
X010132Y002981D02*
X011495Y002981D01*
X011495Y002822D02*
X010263Y002822D01*
X010329Y002664D02*
X011495Y002664D01*
X011510Y002505D02*
X010339Y002505D01*
X010339Y002346D02*
X011602Y002346D01*
X011566Y002188D02*
X010339Y002188D01*
X010339Y002029D02*
X011408Y002029D01*
X011249Y001871D02*
X010339Y001871D01*
X010308Y001712D02*
X011091Y001712D01*
X011110Y001152D02*
X012243Y002285D01*
X020537Y002285D01*
X020740Y002488D01*
X020740Y003328D01*
X020704Y003364D01*
X021334Y003298D02*
X022218Y003298D01*
X022218Y003456D02*
X021334Y003456D01*
X021334Y003615D02*
X022218Y003615D01*
X022218Y003773D02*
X021334Y003773D01*
X021275Y003932D02*
X022218Y003932D01*
X022218Y004090D02*
X021168Y004090D01*
X020937Y004249D02*
X022218Y004249D01*
X022218Y004408D02*
X017476Y004408D01*
X017539Y004566D02*
X022218Y004566D01*
X022218Y004725D02*
X017539Y004725D01*
X017539Y004883D02*
X022218Y004883D01*
X022218Y005042D02*
X017539Y005042D01*
X017567Y005200D02*
X022218Y005200D01*
X022218Y005359D02*
X017598Y005359D01*
X017581Y005517D02*
X022218Y005517D01*
X022218Y005676D02*
X017507Y005676D01*
X017309Y005834D02*
X022218Y005834D01*
X022218Y005993D02*
X016970Y005993D01*
X016904Y006151D02*
X022218Y006151D01*
X022218Y006310D02*
X016759Y006310D01*
X016898Y006469D02*
X022218Y006469D01*
X022218Y006627D02*
X016964Y006627D01*
X016990Y006786D02*
X022218Y006786D01*
X022218Y006944D02*
X016990Y006944D01*
X016924Y007103D02*
X022218Y007103D01*
X020852Y007578D02*
X020832Y007578D01*
X020832Y007737D02*
X020852Y007737D01*
X020852Y007895D02*
X020832Y007895D01*
X020832Y008054D02*
X020852Y008054D01*
X020852Y008213D02*
X020832Y008213D01*
X020523Y008213D02*
X020373Y008213D01*
X020402Y007578D02*
X020494Y007578D01*
X019842Y008881D02*
X019498Y008881D01*
X018667Y009712D01*
X018667Y011841D01*
X017110Y013398D01*
X013089Y013398D01*
X013080Y013407D01*
X013080Y013409D01*
X012347Y014142D01*
X012347Y014773D01*
X012976Y014713D02*
X015032Y014713D01*
X015013Y014871D02*
X012976Y014871D01*
X012976Y015030D02*
X015022Y015030D01*
X015088Y015188D02*
X012976Y015188D01*
X012915Y015347D02*
X015216Y015347D01*
X015130Y015506D02*
X012805Y015506D01*
X012567Y015664D02*
X015052Y015664D01*
X015013Y015823D02*
X000802Y015823D01*
X000802Y015981D02*
X015013Y015981D01*
X015098Y014554D02*
X012976Y014554D01*
X012976Y014396D02*
X015240Y014396D01*
X015108Y014237D02*
X012931Y014237D01*
X012990Y014079D02*
X015042Y014079D01*
X015013Y013920D02*
X013148Y013920D01*
X012126Y015664D02*
X011567Y015664D01*
X011805Y015506D02*
X011888Y015506D01*
X011126Y015664D02*
X010567Y015664D01*
X010805Y015506D02*
X010888Y015506D01*
X010126Y015664D02*
X009567Y015664D01*
X009805Y015506D02*
X009888Y015506D01*
X009126Y015664D02*
X008567Y015664D01*
X008805Y015506D02*
X008888Y015506D01*
X008126Y015664D02*
X007567Y015664D01*
X007805Y015506D02*
X007888Y015506D01*
X007126Y015664D02*
X006567Y015664D01*
X006805Y015506D02*
X006888Y015506D01*
X006126Y015664D02*
X005567Y015664D01*
X005805Y015506D02*
X005888Y015506D01*
X005126Y015664D02*
X000802Y015664D01*
X000802Y015506D02*
X004888Y015506D01*
X004717Y014871D02*
X002561Y014871D01*
X002728Y014713D02*
X004717Y014713D01*
X004717Y014554D02*
X002808Y014554D01*
X002848Y014396D02*
X004717Y014396D01*
X004762Y014237D02*
X002848Y014237D01*
X002796Y014079D02*
X004850Y014079D01*
X005036Y013920D02*
X002698Y013920D01*
X002768Y012652D02*
X011309Y012652D01*
X011468Y012493D02*
X003448Y012493D01*
X003447Y012495D02*
X003413Y012528D01*
X003372Y012552D01*
X003326Y012564D01*
X003124Y012564D01*
X003124Y012186D01*
X003483Y012186D01*
X003483Y012408D01*
X003470Y012454D01*
X003447Y012495D01*
X003483Y012335D02*
X011626Y012335D01*
X011785Y012176D02*
X003124Y012176D01*
X003124Y012335D02*
X003087Y012335D01*
X003087Y012493D02*
X003124Y012493D01*
X003483Y012018D02*
X011944Y012018D01*
X010247Y010531D02*
X010183Y010531D01*
X010171Y010519D01*
X010159Y010519D01*
X010187Y010515D02*
X010084Y010503D01*
X008793Y009212D01*
X008793Y008735D01*
X008781Y008723D01*
X009411Y008723D01*
X010923Y007212D01*
X011946Y008235D01*
X011946Y008831D01*
X010247Y010531D01*
X011946Y008853D02*
X011946Y008831D01*
X012902Y006786D02*
X015130Y006786D01*
X015157Y006627D02*
X013121Y006627D01*
X013202Y006469D02*
X015223Y006469D01*
X015362Y006310D02*
X013225Y006310D01*
X013201Y006151D02*
X015217Y006151D01*
X015151Y005993D02*
X013167Y005993D01*
X013167Y005834D02*
X015130Y005834D01*
X015137Y005676D02*
X013167Y005676D01*
X013167Y005517D02*
X015203Y005517D01*
X015328Y005359D02*
X013167Y005359D01*
X013167Y005200D02*
X015253Y005200D01*
X015172Y005042D02*
X013167Y005042D01*
X013167Y004883D02*
X015130Y004883D01*
X015130Y004725D02*
X013167Y004725D01*
X013167Y004566D02*
X015183Y004566D01*
X015279Y004408D02*
X013167Y004408D01*
X013167Y004249D02*
X013471Y004249D01*
X013240Y004090D02*
X013168Y004090D01*
X012704Y004087D02*
X012704Y003364D01*
X012717Y003376D01*
X011905Y002623D02*
X012243Y002285D01*
X012409Y001871D02*
X020863Y001871D01*
X020861Y002029D02*
X021015Y002029D01*
X021020Y002188D02*
X021257Y002188D01*
X021125Y002346D02*
X022218Y002346D01*
X022218Y002188D02*
X022103Y002188D01*
X022218Y002505D02*
X021150Y002505D01*
X021195Y002664D02*
X022218Y002664D01*
X022218Y002822D02*
X021286Y002822D01*
X021334Y002981D02*
X022218Y002981D01*
X022218Y003139D02*
X021334Y003139D01*
X020471Y004249D02*
X019937Y004249D01*
X020168Y004090D02*
X020240Y004090D01*
X019471Y004249D02*
X018937Y004249D01*
X019168Y004090D02*
X019240Y004090D01*
X018471Y004249D02*
X017324Y004249D01*
X017177Y004090D02*
X017485Y004090D01*
X017684Y004090D02*
X017724Y004090D01*
X017724Y003932D02*
X017684Y003932D01*
X017684Y003773D02*
X017724Y003773D01*
X017724Y003615D02*
X017684Y003615D01*
X017684Y003456D02*
X017724Y003456D01*
X017717Y003366D02*
X017717Y003297D01*
X017724Y003298D02*
X017684Y003298D01*
X017684Y003343D02*
X017684Y002695D01*
X017724Y002695D01*
X017724Y003343D01*
X017684Y003343D01*
X017700Y003367D02*
X017704Y003364D01*
X017684Y003139D02*
X017724Y003139D01*
X017724Y002981D02*
X017684Y002981D01*
X017684Y002822D02*
X017724Y002822D01*
X016727Y003387D02*
X016704Y003364D01*
X017275Y003932D02*
X017306Y003932D01*
X017923Y004090D02*
X018240Y004090D01*
X018133Y003932D02*
X018102Y003932D01*
X016060Y004817D02*
X015704Y004461D01*
X015704Y003364D01*
X015240Y004090D02*
X015168Y004090D01*
X015294Y004249D02*
X014937Y004249D01*
X014471Y004249D02*
X013937Y004249D01*
X014168Y004090D02*
X014240Y004090D01*
X011905Y005193D02*
X011905Y002623D01*
X012250Y001712D02*
X020772Y001712D01*
X020712Y001554D02*
X012092Y001554D01*
X011933Y001395D02*
X020670Y001395D01*
X020670Y001237D02*
X011775Y001237D01*
X011616Y001078D02*
X020685Y001078D01*
X020728Y000920D02*
X011457Y000920D01*
X011110Y001152D02*
X009412Y001152D01*
X008709Y001855D01*
X008709Y002213D01*
X004407Y004883D02*
X003830Y004883D01*
X004074Y004725D02*
X004163Y004725D01*
X003407Y004883D02*
X002830Y004883D01*
X003074Y004725D02*
X003163Y004725D01*
X003570Y010908D02*
X015013Y010908D01*
X015037Y011066D02*
X003570Y011066D01*
X003633Y011225D02*
X015103Y011225D01*
X015252Y011383D02*
X003633Y011383D01*
X003633Y011542D02*
X015103Y011542D01*
X015037Y011701D02*
X003633Y011701D01*
X003600Y011859D02*
X015013Y011859D01*
X016634Y011383D02*
X017384Y011383D01*
X017384Y011225D02*
X016784Y011225D01*
X016849Y011066D02*
X017384Y011066D01*
X017384Y010908D02*
X016873Y010908D01*
X016869Y010749D02*
X017384Y010749D01*
X017384Y010591D02*
X016804Y010591D01*
X016683Y010432D02*
X017384Y010432D01*
X017384Y010274D02*
X016744Y010274D01*
X016829Y010115D02*
X017384Y010115D01*
X017384Y009957D02*
X016873Y009957D01*
X016873Y009798D02*
X017384Y009798D01*
X017384Y009639D02*
X016824Y009639D01*
X016731Y009481D02*
X017384Y009481D01*
X017384Y009322D02*
X016534Y009322D01*
X016784Y011542D02*
X017384Y011542D01*
X017360Y011701D02*
X016849Y011701D01*
X016873Y011859D02*
X017201Y011859D01*
X018119Y012969D02*
X019232Y012969D01*
X019232Y013127D02*
X017960Y013127D01*
X017802Y013286D02*
X019384Y013286D01*
X019416Y013444D02*
X017643Y013444D01*
X017485Y013603D02*
X019257Y013603D01*
X019232Y013762D02*
X017303Y013762D01*
X016873Y013920D02*
X019232Y013920D01*
X019232Y014079D02*
X016844Y014079D01*
X016779Y014237D02*
X019336Y014237D01*
X019464Y014396D02*
X016646Y014396D01*
X016789Y014554D02*
X019306Y014554D01*
X019232Y014713D02*
X016854Y014713D01*
X016873Y014871D02*
X019232Y014871D01*
X019232Y015030D02*
X016865Y015030D01*
X016799Y015188D02*
X019287Y015188D01*
X019446Y015347D02*
X016671Y015347D01*
X016756Y015506D02*
X019355Y015506D01*
X019232Y015664D02*
X016834Y015664D01*
X016873Y015823D02*
X019232Y015823D01*
X019232Y015981D02*
X016873Y015981D01*
X016819Y016140D02*
X019238Y016140D01*
X019397Y016298D02*
X016720Y016298D01*
X016707Y016457D02*
X019403Y016457D01*
X019292Y016615D02*
X016814Y016615D01*
X016873Y016774D02*
X019232Y016774D01*
X019232Y016932D02*
X016873Y016932D01*
X016839Y017091D02*
X019269Y017091D01*
X019348Y017250D02*
X016768Y017250D01*
X016610Y017408D02*
X019521Y017408D01*
X020163Y017408D02*
X022218Y017408D01*
X022218Y017250D02*
X021124Y017250D01*
X021033Y017341D02*
X020852Y017341D01*
X020852Y016891D01*
X021302Y016891D01*
X021302Y017071D01*
X021033Y017341D01*
X020852Y017250D02*
X020832Y017250D01*
X020832Y017091D02*
X020852Y017091D01*
X020852Y016932D02*
X020832Y016932D01*
X020827Y016896D02*
X020842Y016881D01*
X020852Y016871D02*
X021302Y016871D01*
X021302Y016690D01*
X021033Y016421D01*
X020852Y016421D01*
X020852Y016871D01*
X020852Y016774D02*
X020832Y016774D01*
X020832Y016615D02*
X020852Y016615D01*
X020852Y016457D02*
X020832Y016457D01*
X020852Y016341D02*
X020852Y015891D01*
X021302Y015891D01*
X021302Y016071D01*
X021033Y016341D01*
X020852Y016341D01*
X020852Y016298D02*
X020832Y016298D01*
X020832Y016140D02*
X020852Y016140D01*
X020852Y015981D02*
X020832Y015981D01*
X020852Y015871D02*
X021302Y015871D01*
X021302Y015690D01*
X021033Y015421D01*
X020852Y015421D01*
X020852Y015871D01*
X020852Y015823D02*
X020832Y015823D01*
X020832Y015664D02*
X020852Y015664D01*
X020852Y015506D02*
X020832Y015506D01*
X020852Y015341D02*
X020852Y014891D01*
X021302Y014891D01*
X021302Y015071D01*
X021033Y015341D01*
X020852Y015341D01*
X020852Y015188D02*
X020832Y015188D01*
X020832Y015030D02*
X020852Y015030D01*
X020852Y014871D02*
X022218Y014871D01*
X022218Y014713D02*
X021302Y014713D01*
X021302Y015030D02*
X022218Y015030D01*
X022218Y015188D02*
X021185Y015188D01*
X021117Y015506D02*
X022218Y015506D01*
X022218Y015664D02*
X021276Y015664D01*
X021302Y015823D02*
X022218Y015823D01*
X022218Y015981D02*
X021302Y015981D01*
X021234Y016140D02*
X022218Y016140D01*
X022218Y016298D02*
X021075Y016298D01*
X021069Y016457D02*
X022218Y016457D01*
X022218Y016615D02*
X021227Y016615D01*
X021302Y016774D02*
X022218Y016774D01*
X022218Y016932D02*
X021302Y016932D01*
X021282Y017091D02*
X022218Y017091D01*
X022218Y017567D02*
X004120Y017567D01*
X004137Y017725D02*
X022218Y017725D01*
X022218Y017884D02*
X004127Y017884D01*
X004061Y018042D02*
X022218Y018042D01*
X022218Y018201D02*
X007364Y018201D01*
X007506Y018359D02*
X022218Y018359D01*
X020560Y017250D02*
X020336Y017250D01*
X020392Y016615D02*
X020457Y016615D01*
X020615Y016457D02*
X020281Y016457D01*
X020287Y016298D02*
X020609Y016298D01*
X020450Y016140D02*
X020446Y016140D01*
X020329Y015506D02*
X020567Y015506D01*
X020499Y015188D02*
X020397Y015188D01*
X020238Y015347D02*
X022218Y015347D01*
X020852Y014713D02*
X020832Y014713D01*
X020832Y014554D02*
X020852Y014554D01*
X020518Y014554D02*
X020378Y014554D01*
X020427Y013603D02*
X020469Y013603D01*
X020628Y013444D02*
X020268Y013444D01*
X020299Y013286D02*
X020597Y013286D01*
X020579Y012493D02*
X020317Y012493D01*
X020251Y012335D02*
X020645Y012335D01*
X020487Y012176D02*
X020409Y012176D01*
X020361Y011225D02*
X020536Y011225D01*
X020482Y010591D02*
X020414Y010591D01*
X020256Y010432D02*
X020640Y010432D01*
X020584Y010274D02*
X020312Y010274D01*
X020305Y009481D02*
X020591Y009481D01*
X020633Y009322D02*
X020263Y009322D01*
X020422Y009164D02*
X020474Y009164D01*
X019372Y010274D02*
X019077Y010274D01*
X019077Y010432D02*
X019428Y010432D01*
X019269Y010591D02*
X019077Y010591D01*
X019077Y010749D02*
X019232Y010749D01*
X019232Y010908D02*
X019077Y010908D01*
X019077Y011066D02*
X019232Y011066D01*
X019323Y011225D02*
X019077Y011225D01*
X019077Y011383D02*
X019477Y011383D01*
X019318Y011542D02*
X019077Y011542D01*
X019077Y011701D02*
X019232Y011701D01*
X019232Y011859D02*
X019077Y011859D01*
X019038Y012018D02*
X019232Y012018D01*
X019275Y012176D02*
X018911Y012176D01*
X018753Y012335D02*
X019433Y012335D01*
X019367Y012493D02*
X018594Y012493D01*
X018436Y012652D02*
X019232Y012652D01*
X019232Y012810D02*
X018277Y012810D01*
X019077Y010115D02*
X019232Y010115D01*
X019232Y009957D02*
X019077Y009957D01*
X019161Y009798D02*
X019232Y009798D01*
X010654Y018835D02*
X007574Y018835D01*
X007507Y018994D02*
X010493Y018994D01*
X010397Y019152D02*
X007369Y019152D01*
X007362Y019469D02*
X000802Y019469D01*
X000802Y019311D02*
X010395Y019311D01*
X010397Y019469D02*
X008106Y019469D01*
X008299Y019628D02*
X010492Y019628D01*
X010653Y019786D02*
X008411Y019786D01*
X008477Y019945D02*
X009524Y019945D01*
X009445Y020103D02*
X008494Y020103D01*
X008494Y020262D02*
X009351Y020262D01*
X009192Y020420D02*
X008494Y020420D01*
X008494Y020579D02*
X009076Y020579D01*
X009076Y020737D02*
X008494Y020737D01*
X008494Y020896D02*
X009076Y020896D01*
X009156Y021055D02*
X008494Y021055D01*
X009385Y021284D02*
X009822Y021284D01*
X010132Y020975D01*
X010132Y020923D01*
X010234Y020923D01*
X010306Y020894D01*
X010378Y020923D01*
X010903Y020923D01*
X011025Y020873D01*
X011031Y020867D01*
X015351Y020867D01*
X015643Y021159D01*
X015781Y021297D01*
X015961Y021372D01*
X015697Y021213D02*
X009893Y021213D01*
X010052Y021055D02*
X015539Y021055D01*
X015380Y020896D02*
X010970Y020896D01*
X010312Y020896D02*
X010300Y020896D01*
X007417Y021689D02*
X000802Y021689D01*
X000802Y021847D02*
X016165Y021847D01*
X016176Y022006D02*
X000802Y022006D01*
X000802Y022164D02*
X016249Y022164D01*
X022031Y022323D02*
X022218Y022323D01*
X010036Y013920D02*
X009657Y013920D01*
X009843Y014079D02*
X009850Y014079D01*
X009036Y013920D02*
X008657Y013920D01*
X008843Y014079D02*
X008850Y014079D01*
X008036Y013920D02*
X007657Y013920D01*
X007843Y014079D02*
X007850Y014079D01*
X007036Y013920D02*
X006657Y013920D01*
X006843Y014079D02*
X006850Y014079D01*
X006036Y013920D02*
X005657Y013920D01*
X005843Y014079D02*
X005850Y014079D01*
X002695Y016140D02*
X000802Y016140D01*
X000802Y016298D02*
X002452Y016298D01*
X002340Y016457D02*
X000802Y016457D01*
X000802Y016615D02*
X002277Y016615D01*
X002277Y016774D02*
X000802Y016774D01*
X000802Y016932D02*
X002308Y016932D01*
X002374Y017091D02*
X000802Y017091D01*
X000802Y017250D02*
X002500Y017250D01*
X002360Y017408D02*
X000802Y017408D01*
X000802Y017567D02*
X002295Y017567D01*
X002277Y017725D02*
X000802Y017725D01*
X000802Y017884D02*
X002288Y017884D01*
X002353Y018042D02*
X000802Y018042D01*
X000802Y018201D02*
X002484Y018201D01*
X002772Y018359D02*
X000802Y018359D01*
X000802Y018518D02*
X005534Y018518D01*
X005513Y018676D02*
X000802Y018676D01*
X000802Y018835D02*
X005533Y018835D01*
X005600Y018994D02*
X000802Y018994D01*
X000802Y019152D02*
X005738Y019152D01*
X005606Y019572D02*
X005515Y019543D01*
X005420Y019528D01*
X005372Y019528D01*
X005372Y020567D01*
X005372Y020567D01*
X005372Y019528D01*
X005324Y019528D01*
X005229Y019543D01*
X005138Y019572D01*
X005053Y019616D01*
X004975Y019672D01*
X004907Y019740D01*
X004851Y019818D01*
X004807Y019904D01*
X004777Y019995D01*
X004762Y020090D01*
X004762Y020567D01*
X005372Y020567D01*
X005372Y020568D01*
X005372Y021608D01*
X005324Y021608D01*
X005229Y021593D01*
X005138Y021563D01*
X005053Y021519D01*
X004975Y021463D01*
X004907Y021395D01*
X004851Y021317D01*
X004807Y021232D01*
X004777Y021141D01*
X004762Y021046D01*
X004762Y020568D01*
X005372Y020568D01*
X005372Y020568D01*
X005372Y021608D01*
X005420Y021608D01*
X005515Y021593D01*
X005606Y021563D01*
X005692Y021519D01*
X005770Y021463D01*
X005837Y021395D01*
X005894Y021317D01*
X005938Y021232D01*
X005967Y021141D01*
X005982Y021046D01*
X005982Y020568D01*
X005373Y020568D01*
X005373Y020567D01*
X005982Y020567D01*
X005982Y020090D01*
X005967Y019995D01*
X005938Y019904D01*
X005894Y019818D01*
X005837Y019740D01*
X005770Y019672D01*
X005692Y019616D01*
X005606Y019572D01*
X005708Y019628D02*
X007170Y019628D01*
X007057Y019786D02*
X005871Y019786D01*
X005951Y019945D02*
X006992Y019945D01*
X006974Y020103D02*
X005982Y020103D01*
X005982Y020262D02*
X006974Y020262D01*
X006974Y020420D02*
X005982Y020420D01*
X005982Y020579D02*
X006974Y020579D01*
X006974Y020737D02*
X005982Y020737D01*
X005982Y020896D02*
X006974Y020896D01*
X006974Y021055D02*
X005981Y021055D01*
X005944Y021213D02*
X007001Y021213D01*
X007067Y021372D02*
X005854Y021372D01*
X005671Y021530D02*
X007192Y021530D01*
X005372Y021530D02*
X005372Y021530D01*
X005372Y021372D02*
X005372Y021372D01*
X005372Y021213D02*
X005372Y021213D01*
X005372Y021055D02*
X005372Y021055D01*
X005372Y020896D02*
X005372Y020896D01*
X005372Y020737D02*
X005372Y020737D01*
X005372Y020579D02*
X005372Y020579D01*
X005372Y020420D02*
X005372Y020420D01*
X005372Y020262D02*
X005372Y020262D01*
X005372Y020103D02*
X005372Y020103D01*
X005372Y019945D02*
X005372Y019945D01*
X005372Y019786D02*
X005372Y019786D01*
X005372Y019628D02*
X005372Y019628D01*
X005036Y019628D02*
X000802Y019628D01*
X000802Y019786D02*
X004874Y019786D01*
X004794Y019945D02*
X000802Y019945D01*
X000802Y020103D02*
X004762Y020103D01*
X004762Y020262D02*
X000802Y020262D01*
X000802Y020420D02*
X004762Y020420D01*
X004762Y020579D02*
X000802Y020579D01*
X000802Y020737D02*
X004762Y020737D01*
X004762Y020896D02*
X000802Y020896D01*
X000802Y021055D02*
X004764Y021055D01*
X004801Y021213D02*
X000802Y021213D01*
X000802Y021372D02*
X004890Y021372D01*
X005074Y021530D02*
X000802Y021530D01*
X000802Y022323D02*
X000947Y022323D01*
X003643Y018359D02*
X005601Y018359D01*
X005742Y018201D02*
X003931Y018201D01*
X006553Y018201D02*
X006554Y018201D01*
X006553Y018359D02*
X006554Y018359D01*
X006553Y018518D02*
X006554Y018518D01*
X006553Y018676D02*
X006554Y018676D01*
X006553Y018835D02*
X006554Y018835D01*
X006553Y018994D02*
X006554Y018994D01*
X006553Y019152D02*
X006554Y019152D01*
D21*
X017969Y007853D03*
D22*
X011905Y005193D03*
X012378Y017611D03*
X010925Y019311D03*
X009604Y020756D03*
X015472Y019004D03*
D23*
X015164Y019311D01*
X010925Y019311D01*
X012378Y017611D02*
X010783Y016016D01*
X004656Y016016D01*
X004125Y015485D01*
X004125Y013938D01*
X005874Y012189D01*
X010410Y012189D01*
X010600Y012379D01*
D24*
X010600Y012379D03*
X010187Y010515D03*
X008781Y008723D03*
X010923Y007212D03*
X011946Y008853D03*
X017726Y004668D03*
X017726Y001794D03*
D25*
X017089Y005375D03*
X012717Y006312D03*
M02*
